<svg xmlns="http://www.w3.org/2000/svg" xmlns:xlink="http://www.w3.org/1999/xlink" viewBox="0 0 160.47 130.97"><defs><style>.industries_cls-1,.industries_cls-24{fill:none;}.industries_cls-2{fill:#fff;}.industries_cls-3{fill:url(#linear-gradient);}.industries_cls-4{fill:#e4e7fb;}.industries_cls-5{clip-path:url(#clip-path);}.industries_cls-6{fill:#eff1fe;}.industries_cls-7{fill:url(#linear-gradient-2);}.industries_cls-8{fill:#b7c0eb;}.industries_cls-9{fill:url(#linear-gradient-3);}.industries_cls-10{fill:url(#linear-gradient-4);}.industries_cls-11{isolation:isolate;}.industries_cls-12{fill:url(#linear-gradient-5);}.industries_cls-13{fill:url(#linear-gradient-6);}.industries_cls-14{fill:url(#linear-gradient-7);}.industries_cls-15{fill:url(#linear-gradient-8);}.industries_cls-16{fill:url(#linear-gradient-9);}.industries_cls-17{fill:url(#linear-gradient-10);}.industries_cls-18{fill:url(#linear-gradient-11);}.industries_cls-19{fill:url(#linear-gradient-12);}.industries_cls-20{fill:url(#linear-gradient-13);}.industries_cls-21{fill:url(#linear-gradient-14);}.industries_cls-22{fill:url(#linear-gradient-15);}.industries_cls-23{fill:url(#linear-gradient-16);}.industries_cls-24{stroke:#437fec;stroke-linecap:round;stroke-linejoin:round;stroke-width:1.54px;}.industries_cls-25{fill:url(#linear-gradient-17);}.industries_cls-26{clip-path:url(#clip-path-2);}</style><linearGradient id="linear-gradient" x1="11.2" y1="43.8" x2="72.53" y2="43.8" gradientUnits="userSpaceOnUse"><stop offset="0.17" stop-color="#437fec"/><stop offset="1" stop-color="#184eae"/></linearGradient><clipPath id="clip-path"><polygon class="industries_cls-1" points="11.2 39.38 11.27 12.86 72.53 48.22 72.46 74.75 11.2 39.38"/></clipPath><linearGradient id="linear-gradient-2" x1="51.84" y1="48.71" x2="95.45" y2="48.71" gradientUnits="userSpaceOnUse"><stop offset="0" stop-color="#f1f4fe"/><stop offset="0.58" stop-color="#f7f9fe"/><stop offset="1" stop-color="#fff"/></linearGradient><linearGradient id="linear-gradient-3" x1="167.5" y1="2127.84" x2="167.5" y2="2111.85" gradientTransform="translate(-164.79 -2821.46) scale(1.36)" gradientUnits="userSpaceOnUse"><stop offset="0" stop-color="#b7c0eb"/><stop offset="1" stop-color="#e4e7fb"/></linearGradient><linearGradient id="linear-gradient-4" x1="53.16" y1="68.2" x2="69.84" y2="68.2" xlink:href="#linear-gradient"/><linearGradient id="linear-gradient-5" x1="162.61" y1="2124.37" x2="162.61" y2="2120.33" xlink:href="#linear-gradient-3"/><linearGradient id="linear-gradient-6" x1="161.54" y1="2120.76" x2="161.54" y2="2116.72" xlink:href="#linear-gradient-3"/><linearGradient id="linear-gradient-7" x1="165.2" y1="2127.1" x2="165.2" y2="2123.06" xlink:href="#linear-gradient-3"/><linearGradient id="linear-gradient-8" x1="165.21" y1="2124.61" x2="165.21" y2="2120.57" xlink:href="#linear-gradient-3"/><linearGradient id="linear-gradient-9" x1="163.71" y1="2122.01" x2="163.71" y2="2117.97" xlink:href="#linear-gradient-3"/><linearGradient id="linear-gradient-10" x1="167.81" y1="2127.37" x2="167.81" y2="2123.32" xlink:href="#linear-gradient-3"/><linearGradient id="linear-gradient-11" x1="162.63" y1="2118.4" x2="162.63" y2="2114.35" xlink:href="#linear-gradient-3"/><linearGradient id="linear-gradient-12" x1="166.71" y1="2123.62" x2="166.71" y2="2119.85" xlink:href="#linear-gradient-3"/><linearGradient id="linear-gradient-13" x1="165.22" y1="2121.15" x2="165.22" y2="2117.11" xlink:href="#linear-gradient-3"/><linearGradient id="linear-gradient-14" x1="165.23" y1="2118.66" x2="165.23" y2="2114.62" xlink:href="#linear-gradient-3"/><linearGradient id="linear-gradient-15" x1="168.89" y1="2125" x2="168.89" y2="2120.96" xlink:href="#linear-gradient-3"/><linearGradient id="linear-gradient-16" x1="167.82" y1="2121.4" x2="167.82" y2="2117.36" xlink:href="#linear-gradient-3"/><linearGradient id="linear-gradient-17" x1="93.09" y1="91.07" x2="154.42" y2="91.07" xlink:href="#linear-gradient"/><clipPath id="clip-path-2"><polygon class="industries_cls-1" points="93.09 86.65 93.17 60.13 154.43 95.49 154.35 122.02 93.09 86.65"/></clipPath></defs><title>industries</title><g id="Layer_2" data-name="Layer 2"><g id="Design"><polygon class="industries_cls-2" points="72.84 48.05 72.76 75.28 10.89 39.56 10.97 12.32 72.84 48.05"/><polygon class="industries_cls-3" points="11.2 39.38 11.27 12.86 72.53 48.22 72.46 74.75 11.2 39.38"/><polygon class="industries_cls-4" points="72.84 48.05 73.92 47.41 73.85 74.65 72.76 75.28 72.84 48.05"/><polygon class="industries_cls-2" points="10.97 12.32 12.05 11.69 73.92 47.41 72.84 48.05 10.97 12.32"/><g class="industries_cls-5"><polyline class="industries_cls-2" points="69.33 83.7 69.11 83.58 69.23 41.35 69.45 41.48 69.33 83.7"/><polyline class="industries_cls-2" points="64.69 80.25 64.47 80.13 64.59 37.91 64.81 38.04 64.69 80.25"/><polyline class="industries_cls-2" points="60.04 76.81 59.82 76.68 59.94 34.46 60.16 34.59 60.04 76.81"/><polyline class="industries_cls-2" points="55.39 73.36 55.17 73.24 55.29 31.02 55.51 31.14 55.39 73.36"/><polyline class="industries_cls-2" points="50.74 69.92 50.52 69.79 50.64 27.57 50.86 27.7 50.74 69.92"/><polyline class="industries_cls-2" points="46.09 66.47 45.87 66.34 45.99 24.12 46.21 24.25 46.09 66.47"/><polyline class="industries_cls-2" points="41.44 63.02 41.23 62.9 41.34 20.68 41.56 20.81 41.44 63.02"/><polyline class="industries_cls-2" points="36.8 59.58 36.58 59.45 36.7 17.23 36.91 17.36 36.8 59.58"/><polyline class="industries_cls-2" points="32.15 56.13 31.93 56.01 32.05 13.79 32.27 13.91 32.15 56.13"/><polyline class="industries_cls-2" points="27.5 52.68 27.28 52.56 27.4 10.34 27.62 10.47 27.5 52.68"/><polyline class="industries_cls-2" points="22.85 49.24 22.63 49.11 22.75 6.89 22.97 7.02 22.85 49.24"/><polyline class="industries_cls-2" points="18.2 45.79 17.98 45.67 18.1 3.45 18.32 3.58 18.2 45.79"/><polyline class="industries_cls-2" points="13.55 42.35 13.33 42.22 13.45 0 13.67 0.13 13.55 42.35"/><polyline class="industries_cls-2" points="78.58 57.36 0 11.99 0 11.74 78.58 57.11 78.58 57.36"/><polyline class="industries_cls-2" points="78.58 51.99 0 6.62 0 6.37 78.58 51.74 78.58 51.99"/><polyline class="industries_cls-2" points="78.58 62.68 0 17.31 0 17.06 78.58 62.42 78.58 62.68"/><polyline class="industries_cls-2" points="78.58 67.99 0 22.63 0 22.37 78.58 67.74 78.58 67.99"/><polyline class="industries_cls-2" points="78.58 73.31 0 27.94 0 27.69 78.58 73.06 78.58 73.31"/><polyline class="industries_cls-2" points="78.58 78.63 0 33.26 0 33.01 78.58 78.37 78.58 78.63"/></g><polygon class="industries_cls-6" points="73.78 61.34 73.7 86.55 51.77 73.88 51.84 48.67 73.78 61.34"/><polygon class="industries_cls-4" points="73.78 61.34 95.45 48.75 95.37 73.95 73.7 86.55 73.78 61.34"/><polygon class="industries_cls-7" points="51.84 48.67 73.51 36.08 95.45 48.75 73.78 61.34 51.84 48.67"/><path class="industries_cls-8" d="M71.35,72.19a16.89,16.89,0,0,0-2.6-8.12,15.94,15.94,0,0,0-6.48-6.31A6,6,0,0,0,58,57.2a8,8,0,0,0-1.3.6c-2.3.53-3.74,2.78-3.75,6,0,5.35,3.76,11.89,8.42,14.58a7.77,7.77,0,0,0,3.85,1.18,5.94,5.94,0,0,0,5.47-3.65A8,8,0,0,0,71.35,72.19Z"/><path class="industries_cls-6" d="M71.35,72.19c0,.12,0,0,0,0Z"/><path class="industries_cls-9" d="M71.35,71.75a17,17,0,0,0-2.6-8.12,15.85,15.85,0,0,0-6.48-6.3A6,6,0,0,0,58,56.77,12.77,12.77,0,0,0,55.59,58c2.88-1.67,6.24.92,8.31,2.88A18.49,18.49,0,0,1,69.23,69a13.3,13.3,0,0,1,.55,5,5.42,5.42,0,0,1-2.38,4.28,15.32,15.32,0,0,0,2.09-1.27,4.75,4.75,0,0,0,1.19-1.59,8,8,0,0,0,.67-3.75S71.36,71.88,71.35,71.75Z"/><path class="industries_cls-2" d="M65.21,79.14A7.75,7.75,0,0,1,61.36,78c-4.66-2.69-8.44-9.23-8.42-14.59,0-3.72,1.91-6.12,4.84-6.12a7.75,7.75,0,0,1,3.85,1.17c4.66,2.69,8.44,9.23,8.42,14.59C70,76.74,68.14,79.14,65.21,79.14Z"/><path class="industries_cls-6" d="M65.21,78.93a7.54,7.54,0,0,1-3.74-1.15c-4.6-2.65-8.33-9.11-8.31-14.4,0-3.59,1.82-5.91,4.62-5.91a7.54,7.54,0,0,1,3.74,1.15c4.6,2.65,8.33,9.11,8.32,14.4C69.83,76.61,68,78.93,65.21,78.93Z"/><path class="industries_cls-10" d="M61.52,58.62c4.61,2.66,8.33,9.1,8.32,14.4s-3.76,7.42-8.37,4.76-8.33-9.1-8.31-14.4S56.92,56,61.52,58.62Z"/><g class="industries_cls-11"><path class="industries_cls-6" d="M54.7,70.53a2.6,2.6,0,0,1,.93,1c.51.88.5,1.83,0,2.12a.92.92,0,0,1-.92-.09,2.67,2.67,0,0,1-.93-1c-.51-.88-.51-1.83,0-2.13A1,1,0,0,1,54.7,70.53Z"/><path class="industries_cls-12" d="M59.84,70.56v-.18s0,0,0-.07a.09.09,0,0,0,0,0h0v0s0,0,0-.06l0-.07h0s0,0,0-.06,0-.05,0-.07,0,0,0,0v0s0,0,0,0a.64.64,0,0,1,0-.07l0,0h0a.19.19,0,0,0,0-.07.14.14,0,0,1,0-.06l0,0v0s0,0,0,0l0-.06,0-.07h0l0-.07-.06-.09v0l0,0-.08-.13h0L59.27,69h0l0-.06-.05-.06h0l0,0s0,0,0,0l0,0h0l0,0L59,68.61l0,0h0l-.06,0,0,0h0l-.06,0,0,0h0a.1.1,0,0,0,0,0l-.06,0h0l0,0,0,0h-.06l0,0-.05,0-.06,0h-.42l-.09,0h0l-.1,0-3.83,2.22.1,0,.1,0h.24l.1,0h0l.12,0h0l.11,0h0l.11.06.13.08h0l.12.09h0l.11.09h0a1.14,1.14,0,0,1,.11.11h0a.52.52,0,0,1,.1.11l0,0,.1.13h0a.83.83,0,0,1,.08.12l.09.14,0,.05a.8.8,0,0,1,.08.16h0l.07.16h0l.06.16h0a.88.88,0,0,1,0,.15v0l0,.15h0l0,.16h0c0,.05,0,.1,0,.14v0a.66.66,0,0,1,0,.14h0a.66.66,0,0,1,0,.14h0s0,.09,0,.13h0l0,.11h0l0,.1v0l0,.07s0,0,0,0v0a.39.39,0,0,1-.08.1s0,0,0,0a.34.34,0,0,1-.12.09l3.84-2.23.11-.08,0,0,.08-.1h0s0,0,0,0l0-.06h0a0,0,0,0,0,0,0s0,0,0,0,0,0,0-.06h0a.25.25,0,0,0,0-.07.06.06,0,0,0,0,0h0v0a.13.13,0,0,1,0-.06v0h0v-.13Z"/></g><g class="industries_cls-11"><path class="industries_cls-13" d="M58.39,65.64v-.12a0,0,0,0,1,0,0h0v0a.17.17,0,0,0,0-.07.13.13,0,0,0,0-.06h0a.13.13,0,0,0,0-.06s0-.05,0-.07v0s0,0,0,0,0,0,0-.08,0,0,0,0h0l0-.07,0-.07h0s0,0,0,0l0-.07,0,0h0a.14.14,0,0,0,0-.06l0-.07h0l0-.06a.25.25,0,0,0,0-.07l0,0v0l0,0-.05-.09h0l-.08-.12L57.76,64l0-.07-.05-.05,0-.06h0l0,0,0,0,0,0h0l0,0-.06,0s0,0,0,0h0v0l-.06,0-.05,0h0l-.06,0,0,0h0l-.05,0,0,0h-.05l0,0-.06,0h0l-.05,0h-.38l-.09,0h0l-.1,0-3.83,2.23.1,0,.07,0h.37l.12,0h0l.12.05h0l.13.06.13.09h0l.12.09h0l.11.1h0l.11.11a0,0,0,0,0,0,0,2.75,2.75,0,0,1,.22.26h0l.08.13,0,.07.05.08s0,0,0,0a.54.54,0,0,1,.07.13h0l.07.15h0c0,.06.05.11.07.16h0a1,1,0,0,1,.05.16h0a1.13,1.13,0,0,1,0,.15v0l0,.15h0c0,.06,0,.11,0,.16h0V68h0a.49.49,0,0,1,0,.12v0a.43.43,0,0,1,0,.11v0l0,.09h0l-.05.09a1.25,1.25,0,0,1-.09.12l0,0-.11.08L58,66.48l.11-.08,0,0a.34.34,0,0,0,.09-.12h0a.41.41,0,0,1,0-.09h0l0-.06a.08.08,0,0,1,0,0h0v0a.19.19,0,0,1,0-.07h0v0s0,0,0-.07v0h0v0a.13.13,0,0,0,0-.06v-.06Z"/><path class="industries_cls-6" d="M53.25,65.61a2.86,2.86,0,0,1,1.3,2.26c0,.83-.59,1.17-1.31.75a2.89,2.89,0,0,1-1.31-2.26C51.94,65.53,52.53,65.2,53.25,65.61Z"/></g><g class="industries_cls-11"><path class="industries_cls-14" d="M63.38,74.23v-.06a0,0,0,0,0,0,0h0v0a.13.13,0,0,0,0-.06V74a.64.64,0,0,1,0-.07.13.13,0,0,0,0-.06v0h0v0s0,0,0-.07,0,0,0,0h0l0-.07a.25.25,0,0,0,0-.07h0s0,0,0,0l0-.06,0-.05h0v0l0-.06a.16.16,0,0,1,0-.07h0a.33.33,0,0,0,0-.06A.43.43,0,0,0,63,73a.08.08,0,0,0,0,0h0l0-.06-.05-.08v0a1,1,0,0,0-.08-.11l-.06-.08,0-.06h0l-.05-.06,0-.06h0s0,0,0,0l0,0,0-.06h0s0,0,0,0l0,0-.06-.05,0,0h0l0,0-.05,0,0,0h0l-.06,0,0,0h0l0,0L62,72l0,0h0l0,0-.06,0h-.49l-.08,0h0l-.1,0-3.84,2.23.1,0,.08,0h.25l.1,0h0l.12,0h0l.12,0h0l.13.07.13.08h0l.12.09h0l.11.09,0,0,.1.1v0a.63.63,0,0,1,.11.12h0l.1.13h0l.08.12a.35.35,0,0,1,0,.08l0,.07s0,0,0,0l.06.12h0a1.11,1.11,0,0,1,.07.16h0a.94.94,0,0,1,.06.15s0,0,0,0a.88.88,0,0,1,0,.15h0a.83.83,0,0,1,0,.15h0l0,.15h0s0,.1,0,.16h0v.16h0v.16s0,.08,0,.11v0a.43.43,0,0,1,0,.11v0a.42.42,0,0,1,0,.1h0l0,.1-.09.11,0,0-.11.09L63,75.13a.31.31,0,0,0,.11-.09,0,0,0,0,0,0,0,.31.31,0,0,0,.09-.11h0l.05-.08h0l0-.07a0,0,0,0,1,0,0v0s0,0,0-.06v0h0a0,0,0,0,0,0,0s0,0,0-.06v0h0v-.13h0Z"/><path class="industries_cls-6" d="M58.24,74.26a2.86,2.86,0,0,1,1.3,2.26c0,.83-.59,1.16-1.31.75A2.86,2.86,0,0,1,56.93,75C56.93,74.17,57.52,73.84,58.24,74.26Z"/></g><g class="industries_cls-11"><path class="industries_cls-15" d="M63.39,70.84v-.07s0,0,0,0h0v0a.13.13,0,0,0,0-.06.17.17,0,0,0,0-.07h0a.07.07,0,0,0,0,0s0,0,0-.07a0,0,0,0,0,0,0h0v0s0,0,0-.07,0,0,0,0h0l0-.07a.14.14,0,0,0,0-.06v0h0s0,0,0,0l0-.06a.05.05,0,0,0,0,0v0h0a.33.33,0,0,1,0-.06.25.25,0,0,1,0-.07h0v0l0-.06a.43.43,0,0,1,0-.07l0,0h0l0-.06a.56.56,0,0,0-.05-.08v0l-.08-.11-.06-.08,0-.06-.05-.06,0-.06s0,0,0,0h0l0,0,0,0,0,0h0l0,0-.06-.05,0,0h0s0,0,0,0l-.06,0-.05,0h0l-.06,0,0,0h0l-.05,0,0,0h-.05l0,0-.06,0h-.49l-.08,0h0l-.09,0-3.84,2.24a.31.31,0,0,1,.1,0l.08,0h.24l.11,0h0l.12,0h0l.12.05h0l.13.07.13.08h0l.12.08h0l.11.1h0l.11.11h0l.11.12h0l.09.13h0l0,0,.07.11,0,.07.05.09a0,0,0,0,1,0,0,.83.83,0,0,1,.07.13h0l.07.15h0a1,1,0,0,1,.07.15h0a1,1,0,0,1,.05.16h0c0,.05,0,.1,0,.15h0l0,.16h0s0,.1,0,.15v.31h0a.45.45,0,0,1,0,.12v0a.43.43,0,0,1,0,.11v0a.36.36,0,0,1,0,.09h0a.93.93,0,0,1-.05.1l-.09.11,0,0-.11.08L63,71.74l.11-.09a0,0,0,0,0,0,0,.31.31,0,0,0,.09-.11h0a.41.41,0,0,1,0-.09h0l0-.06a0,0,0,0,1,0,0v0a.14.14,0,0,1,0-.06v0h0v0s0,0,0-.06v0h0a.2.2,0,0,0,0-.07V70.9h0Z"/><path class="industries_cls-6" d="M58.25,70.87a2.85,2.85,0,0,1,1.3,2.26c0,.83-.59,1.16-1.31.75a2.86,2.86,0,0,1-1.3-2.26C56.94,70.79,57.53,70.45,58.25,70.87Z"/><path class="industries_cls-16" d="M61.34,67.29V67.2h0V67.1a.13.13,0,0,1,0-.06v0a.07.07,0,0,0,0,0,.15.15,0,0,0,0-.07v-.07a.25.25,0,0,1,0-.07l0-.05h0l0-.07a.14.14,0,0,0,0-.06v0h0s0,0,0-.05l0-.06s0,0,0-.05h0l0-.06,0-.07h0a0,0,0,0,0,0,0l0-.06,0-.06a.08.08,0,0,1,0,0h0l0-.06,0-.08v0l-.07-.09,0,0,0-.07,0,0h0l0-.06,0-.06a0,0,0,0,1,0,0h0a.08.08,0,0,0,0,0l0-.06h0l0,0,0,0,0,0,0,0h0s0,0,0,0l-.06,0,0,0h0l0,0-.06,0h0l0,0-.06,0,0,0h0l0,0-.06,0h-.49l-.08,0h0a.31.31,0,0,0-.1,0l-3.84,2.23.1,0,.09,0h.24l.1,0h0l.11,0h0l.12,0h0l.12.07a.57.57,0,0,1,.13.08h0l.12.09,0,0,.1.09,0,0,.1.1a0,0,0,0,1,0,0,.69.69,0,0,1,.11.13h0l.1.12h0l0,0,.07.11.06.08,0,.07s0,0,0,0l.06.12s0,0,0,0a.52.52,0,0,1,.07.15h0l.06.15h0a1.42,1.42,0,0,1,0,.16h0a.83.83,0,0,0,0,.15h0l0,.16h0a.77.77,0,0,1,0,.15v.31h0s0,.09,0,.13h0l0,.11s0,0,0,0l0,.09h0a.31.31,0,0,1,0,.1l-.09.11s0,0,0,0a.94.94,0,0,1-.12.09L61,68.19l.11-.08,0,0,.09-.11h0l.05-.09h0l0-.07a0,0,0,0,1,0,0v0s0,0,0-.06v0a0,0,0,0,1,0,0v0s0,0,0-.06v-.05h0v-.13h0Z"/><path class="industries_cls-6" d="M56.2,67.32a2.85,2.85,0,0,1,1.3,2.26c0,.83-.58,1.16-1.31.75a2.86,2.86,0,0,1-1.3-2.26C54.89,67.23,55.48,66.9,56.2,67.32Z"/><path class="industries_cls-6" d="M61.78,74.62a2.64,2.64,0,0,1,.93,1c.51.88.51,1.84,0,2.13a.92.92,0,0,1-.92-.09,2.76,2.76,0,0,1-.93-1c-.51-.88-.51-1.84,0-2.13A.92.92,0,0,1,61.78,74.62Z"/><path class="industries_cls-17" d="M66.93,74.65v-.06s0,0,0-.06V74.4a.09.09,0,0,0,0-.05h0s0,0,0-.06,0,0,0-.07h0a.11.11,0,0,0,0-.05.19.19,0,0,0,0-.07,0,0,0,0,0,0,0h0v0a.19.19,0,0,0,0-.07l0,0h0l0-.07s0,0,0-.06v0h0s0,0,0,0l0-.07,0-.06h0l0-.06,0-.1h0a.05.05,0,0,1,0,0l-.09-.13a0,0,0,0,0,0,0,.86.86,0,0,1-.07-.1h0l0-.06-.05-.06s0,0,0,0v0l0,0-.06-.06s0,0,0,0h0l0,0L66,72.7l0,0h0l-.06-.05,0,0h0l-.06,0,0,0h0l-.06,0-.06,0h0l0,0,0,0h-.06l0,0,0,0h0l-.05,0h-.43l-.09,0h0l-.11,0-3.83,2.23.1,0,.1,0h.24l.11,0h0a.45.45,0,0,1,.11,0h0l.11,0h0a.39.39,0,0,1,.11.06.57.57,0,0,1,.13.08h0l.11.09h0l.11.1h0a.57.57,0,0,1,.11.11h0a1.14,1.14,0,0,1,.11.11v0a1.47,1.47,0,0,1,.1.13h0a1.25,1.25,0,0,1,.09.12l.08.13,0,0a1.19,1.19,0,0,1,.08.16h0a1.11,1.11,0,0,1,.07.16h0l.06.16h0a.88.88,0,0,1,.05.15h0a.94.94,0,0,0,0,.16h0l0,.15h0a.71.71,0,0,1,0,.14h0a1.31,1.31,0,0,1,0,.28v0s0,.08,0,.12h0a.43.43,0,0,1,0,.11h0l0,.1s0,0,0,0l0,.07a0,0,0,0,1,0,0l0,0-.08.1a0,0,0,0,1,0,0,.34.34,0,0,1-.12.09l3.84-2.23.11-.08,0,0,.08-.1h0l0,0,0-.06h0v0s0,0,0,0,0,0,0,0v0h0a.14.14,0,0,0,0-.06v-.06h0a.13.13,0,0,1,0-.06v0h0a.2.2,0,0,1,0-.07v-.06Z"/><path class="industries_cls-18" d="M59.87,62.41v0a.13.13,0,0,0,0-.06v0h0v0a.13.13,0,0,0,0-.06v-.06h0a.13.13,0,0,0,0-.06s0,0,0-.07h0s0,0,0-.06a.19.19,0,0,0,0-.07v0a0,0,0,0,0,0,0,.19.19,0,0,0,0-.07l0,0h0l0-.07,0-.06v0h0v0l0-.07,0-.06h0l0-.06,0-.1a0,0,0,0,1,0,0,.05.05,0,0,1,0,0L59.38,61l0,0-.07-.11h0a.21.21,0,0,1,0-.06l-.05-.06h0l0,0a.12.12,0,0,1,0,0l0,0h0l0,0L59,60.47l0,0h0l-.06-.05,0,0h0l-.06,0-.05,0-.06,0-.05,0h0l0,0-.05,0h0l-.06,0,0,0h0l-.05,0h-.43l-.09,0h0l-.1,0L53.8,62.29l.1,0,.1,0h.24l.11,0h0l.12,0h0l.12,0h0l.12.06.12.08h0l.11.09h0l.11.09h0l.1.11h0a.65.65,0,0,1,.11.12h0a1.13,1.13,0,0,1,.1.13h0l.09.12a.75.75,0,0,1,.07.12.21.21,0,0,1,0,.06c.06.11.12.22.17.33h0a1.52,1.52,0,0,1,.11.32h0c0,.06,0,.11,0,.16h0l0,.16h0a.71.71,0,0,1,0,.14v.16h0a.66.66,0,0,1,0,.14h0s0,.08,0,.12h0A.36.36,0,0,1,56,65v0l0,.08v0l0,.06v0h0l-.08.1,0,0-.11.08,3.83-2.23.12-.08,0,0,.09-.1h0a.05.05,0,0,0,0,0l0,0h0v-.06a.14.14,0,0,0,0-.06h0a.14.14,0,0,1,0-.07v0h0v0a.13.13,0,0,1,0-.06v-.06h0s0,0,0-.06v-.07h0Z"/><path class="industries_cls-6" d="M54.73,62.39a2.62,2.62,0,0,1,.92,1c.51.89.51,1.84,0,2.13a.93.93,0,0,1-.93-.09,2.6,2.6,0,0,1-.93-1c-.51-.88-.5-1.83,0-2.13A1,1,0,0,1,54.73,62.39Z"/><path class="industries_cls-19" d="M65.3,69.58V69.5h0v-.08s0,0,0,0h0s0,0,0,0,0,0,0-.06v0h0v-.08s0,0,0-.05h0s0,0,0,0a.19.19,0,0,0,0-.07h0s0,0,0,0a.14.14,0,0,1,0-.06.08.08,0,0,1,0,0h0s0,0,0-.05l0-.06h0l0,0,0-.06,0,0h0l0,0,0-.08h0l-.08-.11-.05-.06,0-.06,0,0,0,0h0l0,0,0,0h0l0,0,0,0,0,0h0l0,0,0,0h0l0,0,0,0a0,0,0,0,1,0,0,.05.05,0,0,1,0,0l0,0,0,0h0l0,0h-.06l0,0h-.39l-.07,0h0l-.09,0-3.83,2.24.08-.05.08,0H60l.1,0h0l.11,0h0l.12.06.12.08h0l.11.08a0,0,0,0,0,0,0l.1.09h0l.1.09h0l.1.11h0l.09.12h0v0l.07.1.05.08,0,.06,0,0,.06.11h0l.06.13h0a.69.69,0,0,1,0,.13h0a.58.58,0,0,0,.05.14h0l0,.14h0a.78.78,0,0,1,0,.14h0a.68.68,0,0,1,0,.14h0s0,.09,0,.14,0,.08,0,.12h0s0,.08,0,.11v0a.29.29,0,0,0,0,.09v0l0,.08h0a.59.59,0,0,1,0,.08l-.08.1,0,0-.1.08L65,70.38a.39.39,0,0,0,.1-.08l0,0a.86.86,0,0,0,.07-.1h0a.59.59,0,0,0,0-.08h0l0,0V70a.43.43,0,0,0,0,0v0h0v-.11h0v-.13h0Z"/><path class="industries_cls-6" d="M60.31,69.86a2.57,2.57,0,0,1,1.16,2c0,.73-.53,1-1.17.66a2.55,2.55,0,0,1-1.15-2C59.15,69.79,59.67,69.49,60.31,69.86Z"/><path class="industries_cls-20" d="M63.4,66.11V66h0s0,0,0,0v-.07a.13.13,0,0,1,0-.06h0a.13.13,0,0,1,0-.06s0-.05,0-.07v0s0,0,0,0v0s0,0,0-.06,0,0,0-.06h0l0-.07,0-.07h0s0,0,0,0a.19.19,0,0,1,0-.07l0-.06,0-.06a.25.25,0,0,0,0-.07h0s0,0,0-.06l0-.07v0h0a.43.43,0,0,0,0-.07l0-.07v0a.83.83,0,0,0-.08-.12l-.06-.07a.18.18,0,0,0-.05-.07l0-.06-.05,0h0l0,0-.06,0s0,0,0,0h0l0,0s0,0-.05-.05l0,0h0l0,0-.06,0,0,0h0l0,0-.06,0a0,0,0,0,1,0,0l0,0-.06,0,0,0-.05,0,0,0h-.06l0,0h-.39l-.08,0h0l-.1,0-3.84,2.23.1,0,.08,0h0l.1,0h.25L58,66h0l.13,0h0l.13.06.13.09h0l.12.09a0,0,0,0,0,0,0l.12.1h0l.11.11h0l.1.12h0c.07.08.13.17.2.26s0,0,0,.08a.35.35,0,0,1,0,.08l0,0,.07.13h0a1,1,0,0,1,.07.15h0l.06.15h0a.88.88,0,0,1,.05.15h0s0,.1,0,.15v0l0,.15h0a.77.77,0,0,1,0,.15h0s0,.1,0,.15,0,.1,0,.14v0s0,.08,0,.12v0l0,.1v0l0,.08a0,0,0,0,1,0,0,.26.26,0,0,1-.05.09,1.25,1.25,0,0,1-.09.12l0,0-.12.08L63,67l.11-.08,0,0a.53.53,0,0,0,.09-.11h0l0-.09h0l0-.06s0,0,0,0v0a.64.64,0,0,0,0-.07v0h0a.22.22,0,0,0,0-.08v0h0v-.14h0Z"/><path class="industries_cls-6" d="M58.26,66.14a2.87,2.87,0,0,1,1.31,2.26c0,.83-.59,1.17-1.32.75A2.87,2.87,0,0,1,57,66.89C57,66.06,57.54,65.72,58.26,66.14Z"/></g><g class="industries_cls-11"><path class="industries_cls-21" d="M63.41,62.78v-.15h0v0a.2.2,0,0,1,0-.07v-.06h0a.13.13,0,0,1,0-.06l0-.07v-.07s0,0,0-.07l0,0h0a.14.14,0,0,1,0-.07l0-.06h0v0a.08.08,0,0,0,0,0l0-.06v0s0,0,0,0h0l0-.07a.21.21,0,0,0,0-.06h0v0l0,0,0-.07,0,0v0l0,0a.41.41,0,0,0,0-.09h0l-.08-.12h0l-.06-.07a.18.18,0,0,0-.05-.07l0-.06,0,0h0l0,0-.06,0,0,0h0l0,0a.12.12,0,0,1-.05-.05l0,0h0l-.06,0,0,0h0l0,0-.06,0h0l0,0-.06,0,0,0h0l-.05,0,0,0H61.8l0,0h-.39l-.08,0h0l-.1,0-.12.07-.07,0-3.65,2.12.1,0,.08,0h0l.1,0h.25l.11,0h0l.12,0h0l.13.07.13.08h0l.12.09h0a.52.52,0,0,1,.11.1h0l.11.11h0l.11.12h0l.1.14h0l.08.12.06.08,0,.08,0,0,.07.13h0l.08.16h0l.06.16h0a.88.88,0,0,1,0,.15h0a1.24,1.24,0,0,0,0,.16h0c0,.11,0,.21,0,.32h0s0,.1,0,.15,0,.1,0,.14v0s0,.08,0,.12h0l0,.11v0a.94.94,0,0,1,0,.09v0a.41.41,0,0,1,0,.09l-.09.11,0,0-.12.08L63,63.62l.11-.08,0,0,.09-.11h0l.05-.09h0l0-.06v-.06h0s0-.05,0-.07V63a.15.15,0,0,0,0-.07v0h0v-.12Z"/><path class="industries_cls-6" d="M58.27,62.75A2.87,2.87,0,0,1,59.58,65c0,.83-.59,1.17-1.32.75A2.89,2.89,0,0,1,57,63.5C57,62.67,57.55,62.33,58.27,62.75Z"/></g><g class="industries_cls-11"><path class="industries_cls-22" d="M68.4,71.37v-.1h0s0,0,0,0v-.07s0,0,0-.06,0,0,0-.07a.64.64,0,0,1,0-.07v0h0v0s0,0,0-.06l0,0h0a.25.25,0,0,1,0-.07l0-.07h0s0,0,0-.05l0-.06a.43.43,0,0,0,0-.05h0l0-.06,0-.07h0a.14.14,0,0,1,0-.06l0-.07s0,0,0,0h0a.43.43,0,0,1,0-.07l0-.08h0l-.07-.11h0l-.06-.07,0-.06h0l0,0,0-.06h0a0,0,0,0,1,0,0l0,0-.06-.06s0,0,0,0h0l0,0a.12.12,0,0,0,0-.05l0,0s0,0,0,0h0l-.06,0s0,0,0,0h0l0,0-.06,0h0l0,0-.06,0h0l0,0-.05,0h-.48s0,0,0,0l-.08,0h0l-.1,0L62.33,71.3l.1,0,.08,0h.25l.11,0h0l.12,0h0l.13,0h0l.13.06.13.09h0l.12.09s0,0,0,0l.11.09,0,0,.11.1h0l.11.12h0a.71.71,0,0,1,.1.14h0a.83.83,0,0,1,.08.12l.06.09,0,.07,0,0s0,.09.07.13h0a1,1,0,0,1,.07.15h0l.06.15h0a.75.75,0,0,1,0,.16h0s0,.1,0,.14v0l0,.15h0a.77.77,0,0,1,0,.15h0s0,.11,0,.15,0,.1,0,.15h0a.5.5,0,0,1,0,.12v0l0,.11v0l0,.09h0a.47.47,0,0,1,0,.1l-.09.11,0,0-.12.08L68,72.27l.11-.09,0,0,.09-.11h0l0-.09h0l0-.06v0s0,0,0,0v0a.64.64,0,0,0,0-.07v-.06a.13.13,0,0,0,0-.06.06.06,0,0,1,0,0h0v-.14h0Z"/><path class="industries_cls-6" d="M63.26,71.39a2.87,2.87,0,0,1,1.31,2.26c0,.83-.59,1.17-1.32.75A2.86,2.86,0,0,1,62,72.14C62,71.31,62.54,71,63.26,71.39Z"/></g><g class="industries_cls-11"><path class="industries_cls-6" d="M61.81,66.48a2.74,2.74,0,0,1,.92,1c.51.88.51,1.83,0,2.13a.94.94,0,0,1-.93-.1,2.64,2.64,0,0,1-.93-1c-.5-.89-.5-1.84,0-2.13A1,1,0,0,1,61.81,66.48Z"/><path class="industries_cls-23" d="M67,66.51v-.14h0a0,0,0,0,1,0,0,.2.2,0,0,0,0-.07v0h0a.17.17,0,0,0,0-.07s0,0,0-.07h0s0,0,0,0,0,0,0-.07a0,0,0,0,1,0,0h0a0,0,0,0,1,0,0l0-.07a.14.14,0,0,0,0-.06h0a.14.14,0,0,1,0-.06l0-.06s0,0,0,0h0v0a.09.09,0,0,0,0-.06l0-.07s0-.05,0-.08l-.05-.09v0l0,0-.07-.12v0l-.08-.1h0l0,0,0-.07h0l0,0,0-.06,0,0h0l0-.06,0,0h0s0,0,0,0l-.06-.05,0,0h0l0,0-.06,0h0l-.06,0,0,0h0l-.05,0,0,0s0,0,0,0h0l-.06,0,0,0h0l0,0h-.43l-.09,0h0l-.1,0-3.84,2.23.1,0,.1,0h.11a0,0,0,0,0,0,0h.12l.11,0h0l.12,0h0l.12,0h0l.12.06.12.08h0l.11.08h0l.12.1h0l.1.1h0l.1.12h0a1.47,1.47,0,0,1,.1.13h0l.09.13.08.12,0,.06.09.16h0l.08.16h0L63,68h0a1.42,1.42,0,0,0,.05.16h0c0,.05,0,.1,0,.15h0l0,.15h0s0,.09,0,.14h0v.14h0v.13h0s0,.08,0,.12v0l0,.11h0l0,.09v0a.16.16,0,0,1,0,.07v0h0a.27.27,0,0,1-.08.1l0,0-.11.09,3.83-2.23.12-.09s0,0,0,0l.09-.11h0s0,0,0,0l0-.06h0v0a.06.06,0,0,0,0,0,.08.08,0,0,0,0,0h0a.64.64,0,0,0,0-.07v0h0v0s0,0,0-.06v0h0v-.12h0Z"/></g><polygon class="industries_cls-24" points="84.1 64.26 83.94 73.63 102.05 79.58 84.1 64.26"/><polygon class="industries_cls-8" points="93.95 59.31 92.86 59.94 92.78 87.18 154.66 122.89 155.74 122.27 155.81 95.03 93.95 59.31"/><polygon class="industries_cls-2" points="154.73 95.32 154.66 122.55 92.78 86.83 92.86 59.59 154.73 95.32"/><polygon class="industries_cls-25" points="93.09 86.65 93.17 60.13 154.43 95.49 154.35 122.02 93.09 86.65"/><polygon class="industries_cls-4" points="154.73 95.32 155.81 94.69 155.74 121.92 154.66 122.55 154.73 95.32"/><polygon class="industries_cls-2" points="92.86 59.59 93.95 58.97 155.81 94.69 154.73 95.32 92.86 59.59"/><g class="industries_cls-26"><polyline class="industries_cls-2" points="151.23 130.97 151.01 130.85 151.13 88.63 151.35 88.76 151.23 130.97"/><polyline class="industries_cls-2" points="146.58 127.53 146.36 127.4 146.48 85.18 146.7 85.31 146.58 127.53"/><polyline class="industries_cls-2" points="141.93 124.08 141.71 123.95 141.83 81.73 142.05 81.86 141.93 124.08"/><polyline class="industries_cls-2" points="137.28 120.63 137.06 120.51 137.18 78.29 137.4 78.42 137.28 120.63"/><polyline class="industries_cls-2" points="132.63 117.19 132.41 117.06 132.53 74.84 132.75 74.97 132.63 117.19"/><polyline class="industries_cls-2" points="127.99 113.74 127.77 113.62 127.89 71.39 128.11 71.52 127.99 113.74"/><polyline class="industries_cls-2" points="123.34 110.3 123.12 110.17 123.24 67.95 123.46 68.08 123.34 110.3"/><polyline class="industries_cls-2" points="118.69 106.85 118.47 106.72 118.59 64.5 118.81 64.63 118.69 106.85"/><polyline class="industries_cls-2" points="114.04 103.4 113.82 103.28 113.94 61.06 114.16 61.19 114.04 103.4"/><polyline class="industries_cls-2" points="109.39 99.96 109.17 99.83 109.29 57.61 109.51 57.74 109.39 99.96"/><polyline class="industries_cls-2" points="104.74 96.51 104.52 96.39 104.64 54.16 104.86 54.29 104.74 96.51"/><polyline class="industries_cls-2" points="100.1 93.06 99.88 92.94 100 50.72 100.22 50.85 100.1 93.06"/><polyline class="industries_cls-2" points="95.45 89.62 95.23 89.49 95.35 47.27 95.57 47.4 95.45 89.62"/><polyline class="industries_cls-2" points="160.47 104.63 81.89 59.27 81.89 59.01 160.47 104.38 160.47 104.63"/><polyline class="industries_cls-2" points="160.47 99.26 81.89 53.9 81.89 53.64 160.47 99.01 160.47 99.26"/><polyline class="industries_cls-2" points="160.47 109.95 81.89 64.58 81.89 64.33 160.47 109.69 160.47 109.95"/><polyline class="industries_cls-2" points="160.47 115.27 81.89 69.9 81.89 69.64 160.47 115.01 160.47 115.27"/><polyline class="industries_cls-2" points="160.47 120.58 81.89 75.22 81.89 74.96 160.47 120.33 160.47 120.58"/><polyline class="industries_cls-2" points="160.47 125.9 81.89 80.53 81.89 80.28 160.47 125.64 160.47 125.9"/></g></g></g></svg>