<?xml version="1.0" encoding="utf-8"?>
<!-- Generator: Adobe Illustrator 23.0.1, SVG Export Plug-In . SVG Version: 6.00 Build 0)  -->
<svg version="1.1" id="Layer_1" xmlns="http://www.w3.org/2000/svg" xmlns:xlink="http://www.w3.org/1999/xlink" x="0px" y="0px"
	 viewBox="0 0 400 400" style="enable-background:new 0 0 400 400;" xml:space="preserve">
<style type="text/css">
	.st0{fill:#E4E7FB;}
	.st1{fill:#FFFFFF;}
	.st2{fill:#FEFEFF;}
	.st3{fill:#FCFDFF;}
	.st4{fill:#FBFCFE;}
	.st5{fill:#FAFAFE;}
	.st6{fill:#F9F9FE;}
	.st7{fill:#F7F8FE;}
	.st8{fill:#F6F7FE;}
	.st9{fill:#F5F6FD;}
	.st10{fill:#F3F5FD;}
	.st11{fill:#F2F4FD;}
	.st12{fill:#F1F2FD;}
	.st13{fill:#F0F1FD;}
	.st14{fill:#EEF0FD;}
	.st15{fill:#EDEFFC;}
	.st16{fill:#ECEEFC;}
	.st17{fill:#EAEDFC;}
	.st18{fill:#E9ECFC;}
	.st19{fill:#E8EAFC;}
	.st20{fill:#E7E9FB;}
	.st21{fill:#E5E8FB;}
	.st22{fill:#EFF1FE;}
	.st23{fill:#FDFCFF;}
	.st24{fill:url(#SVGID_1_);}
	.st25{enable-background:new    ;}
	.st26{fill:none;}
	.st27{fill:url(#SVGID_2_);}
	.st28{fill:url(#SVGID_3_);}
</style>
<g>
	<path class="st0" d="M108.1,176L5.2,235.7c-1.6,0.9-2.4,2.1-2.4,3.3c0,0,0,0,0,0c0,0,0,0,0,0c0,0,0,0,0,0c0,2.2,0,4.4,0,6.6
		c0,1.2,0.8,2.4,2.4,3.4l153.4,88.6c0.2,0.1,0.4,0.2,0.6,0.3c0.1,0,0.1,0,0.2,0.1c0.1,0.1,0.2,0.1,0.4,0.2c0,0,0,0,0,0
		c0.3,0.1,0.6,0.2,0.9,0.3c0,0,0,0,0.1,0c0.1,0,0.1,0,0.2,0.1c0.2,0,0.3,0.1,0.5,0.1c0,0,0.1,0,0.1,0c0.1,0,0.1,0,0.2,0
		c0.1,0,0.3,0.1,0.4,0.1c0.1,0,0.1,0,0.2,0c0.1,0,0.1,0,0.2,0c0.1,0,0.3,0,0.4,0.1c0.1,0,0.1,0,0.2,0c0.1,0,0.1,0,0.2,0
		c0.1,0,0.3,0,0.4,0c0.1,0,0.1,0,0.2,0c0,0,0.1,0,0.2,0c0.2,0,0.3,0,0.5,0c0.1,0,0.2,0,0.2,0c0,0,0.1,0,0.1,0c0.2,0,0.4,0,0.6,0
		c0.1,0,0.1,0,0.2,0c0,0,0,0,0.1,0c0.3,0,0.6-0.1,0.9-0.1c0,0,0,0,0,0c0.1,0,0.2,0,0.2-0.1c0.2,0,0.3-0.1,0.5-0.1
		c0.1,0,0.2,0,0.3-0.1c0.1,0,0.3-0.1,0.4-0.1c0,0,0.1,0,0.1,0c0.1,0,0.1,0,0.2-0.1c0.2-0.1,0.4-0.1,0.6-0.2c0.1,0,0.2-0.1,0.2-0.1
		c0.3-0.1,0.5-0.2,0.8-0.4L273.1,278l0-6.7L108.1,176z"/>
	<g>
		<path class="st1" d="M234.1,176c-22.4,13-44.8,26-67.2,39c-11.1,6.4-22.2,12.9-33.2,19.3c-3.5,2.1-5.5,4.2-5.3,8.6
			c0.2,5.3,3.8,6.8,8,9.2c44.5,25.7,139.8,85.8,148.4,85.8c6.1,0,10,0.8,14.9-2.1c11-6.4,21.9-12.7,32.9-19.1
			c22.1-12.9,44.3-25.7,66.4-38.6c1-0.6,0.4-5.7,0.1-6.7c-0.5-1.2-5-3-6.1-3.6c-3.1-1.8-6.2-3.6-9.3-5.3c-11-6.4-22-12.7-33-19.1
			c-22.3-12.9-44.5-25.7-66.8-38.6C267.3,195.2,250.7,185.6,234.1,176C201.4,195,235.6,176.8,234.1,176z"/>
		<path class="st2" d="M228.1,176c-22.4,13-44.7,26-67.1,38.9c-11.1,6.4-22.1,12.8-33.2,19.3c-0.6,0.4-1.2,0.7-1.7,1.1
			c-1.6,1.2-2.8,2.5-3.3,4.3c-0.3,0.9-0.4,1.9-0.4,3c0.1,5.2,3.6,6.9,7.7,9.3c3.6,2.1,7.5,4.4,11.7,6.8
			c18.1,10.7,40.9,24.5,62.7,37.6c35,21,67.3,40.3,73,40.7c3.4,0.3,6.3,0.6,9,0.5c1.3,0,2.6-0.1,3.9-0.5c1-0.3,2-0.7,3.1-1.2
			c1.7-0.8,3.4-1.7,4.9-2.5c9.6-5.2,20.6-12.4,30.6-18.2c15.5-9,30.9-18,46.4-27c5.9-3.4,11.8-7,17.6-10.5c0.2-0.1,0.4-0.6,0.4-1.1
			c0.2-1.7-0.2-4.6-0.4-5.3c-0.5-1.2-4.8-2.9-5.9-3.5c-3.1-1.8-6.1-3.5-9.2-5.3c-10.9-6.3-21.9-12.6-32.8-19
			c-3.3-1.9-6.6-3.8-9.9-5.7c-18.8-10.9-37.6-21.7-56.4-32.6c-16.5-9.5-33-19-49.5-28.6c-23,13-12.3,7.2-5.4,2.7
			C226.4,177.7,228.5,176.2,228.1,176z"/>
		<path class="st3" d="M222.1,176c-22.3,13-44.6,25.9-66.9,38.9c-11,6.4-22.1,12.8-33.1,19.2c-0.6,0.4-1.2,0.7-1.7,1.1
			c-1.6,1.2-2.8,2.5-3.4,4.2c-0.3,0.9-0.5,1.8-0.5,3c0,5.2,3.3,7.1,7.4,9.4c3.6,2.1,7.5,4.4,11.6,6.8c18.1,10.7,40.7,24.4,62.3,37.3
			c34.3,20.6,66,39.6,72.5,40.5c3.6,0.5,6.6,1,9.6,1.1c1.4,0.1,2.7,0.1,4.1-0.3c1-0.2,2.1-0.6,3.4-1.1c1.9-0.8,3.8-1.6,5.4-2.4
			c9.7-4.9,22.2-13.8,32.7-19.9c14.9-8.7,29.9-17.4,44.8-26c5.6-3.3,11.3-6.8,16.7-10.3c0.2-0.1,0.4-0.6,0.4-1.1
			c0.2-1.6-0.2-4.4-0.5-5.1c-0.5-1.1-4.6-2.8-5.7-3.4c-3-1.8-6.1-3.5-9.1-5.3c-10.9-6.3-21.7-12.6-32.6-18.8
			c-3.3-1.9-6.6-3.8-9.8-5.7c-18.7-10.8-37.4-21.6-56-32.4c-16.4-9.5-32.8-18.9-49.2-28.4c-22.2,12.1-12.4,6.4-6.2,2
			C220.7,177.7,222.6,176.3,222.1,176z"/>
		<path class="st4" d="M216.1,176c-22.3,12.9-44.5,25.9-66.8,38.8c-11,6.4-22,12.8-33,19.2c-0.6,0.4-1.2,0.7-1.7,1.1
			c-1.6,1.2-2.8,2.4-3.5,4.1c-0.3,0.8-0.5,1.8-0.5,2.9c-0.1,5.1,3.1,7.2,7.1,9.5c3.6,2.1,7.4,4.3,11.5,6.7
			c18.1,10.7,40.5,24.2,61.9,37c33.6,20.1,64.7,38.9,72,40.3c3.7,0.7,7,1.3,10.1,1.7c1.4,0.1,2.9,0.3,4.4,0c1-0.2,2.3-0.5,3.6-1
			c2.1-0.7,4.3-1.5,5.9-2.3c9.8-4.6,23.7-15.2,34.8-21.7c14.4-8.4,28.8-16.7,43.2-25.1c5.3-3.1,10.7-6.6,15.8-10.1
			c0.2-0.1,0.3-0.5,0.4-1.1c0.2-1.5-0.2-4.2-0.5-4.8c-0.5-1.1-4.4-2.7-5.5-3.3c-3-1.7-6-3.5-9.1-5.2c-10.8-6.2-21.6-12.5-32.4-18.7
			c-3.3-1.9-6.5-3.8-9.8-5.6c-18.6-10.7-37.1-21.4-55.7-32.1c-16.3-9.4-32.6-18.8-48.8-28.2c-21.4,11.3-12.5,5.5-6.9,1.3
			C214.9,177.7,216.6,176.3,216.1,176z"/>
		<path class="st5" d="M210.1,176c-22.2,12.9-44.4,25.8-66.7,38.7c-11,6.4-22,12.8-33,19.1c-0.6,0.4-1.2,0.7-1.7,1.1
			c-1.6,1.1-2.8,2.4-3.5,4.1c-0.4,0.8-0.6,1.8-0.6,2.9c-0.2,5,2.9,7.3,6.8,9.6c3.6,2.1,7.4,4.3,11.5,6.7
			c18.2,10.7,40.2,24,61.5,36.7c32.9,19.7,63.4,38.1,71.5,40c3.9,0.9,7.4,1.7,10.7,2.2c1.5,0.2,3.1,0.5,4.7,0.2
			c1.1-0.2,2.4-0.5,3.9-0.9c2.3-0.7,4.7-1.5,6.3-2.2c9.9-4.3,25.3-16.6,37-23.4c13.9-8.1,27.8-16.1,41.6-24.2
			c5.1-2.9,10.2-6.5,15-9.9c0.2-0.1,0.3-0.5,0.4-1c0.1-1.5-0.3-4-0.6-4.6c-0.5-1.1-4.3-2.5-5.3-3.1c-3-1.7-6-3.5-9-5.2
			c-10.7-6.2-21.4-12.4-32.2-18.6c-3.2-1.9-6.5-3.7-9.7-5.6c-18.4-10.6-36.8-21.3-55.3-31.9c-16.2-9.3-32.3-18.7-48.5-28
			c-20.6,10.4-12.7,4.7-7.7,0.5C209.1,177.6,210.7,176.3,210.1,176z"/>
		<path class="st6" d="M204.1,176c-22.2,12.9-44.4,25.8-66.5,38.6c-11,6.4-21.9,12.7-32.9,19.1c-0.6,0.4-1.2,0.7-1.7,1.1
			c-1.6,1.1-2.8,2.4-3.6,4c-0.4,0.8-0.6,1.7-0.7,2.8c-0.3,4.9,2.6,7.5,6.5,9.7c3.6,2.1,7.4,4.3,11.4,6.6
			c18.2,10.7,40,23.9,61.1,36.4c32.2,19.3,62.1,37.4,71,39.8c4,1.1,7.7,2.1,11.2,2.8c1.6,0.3,3.2,0.7,4.9,0.5
			c1.1-0.1,2.6-0.4,4.2-0.9c2.5-0.7,5.1-1.4,6.8-2.1c10-4,26.9-18,39.1-25.1c13.4-7.8,26.7-15.5,40.1-23.3c4.8-2.8,9.7-6.3,14.1-9.7
			c0.2-0.1,0.3-0.5,0.3-1c0.1-1.4-0.3-3.8-0.6-4.4c-0.5-1-4.1-2.4-5.1-3c-3-1.7-6-3.4-8.9-5.2c-10.6-6.1-21.3-12.3-31.9-18.5
			c-3.2-1.9-6.4-3.7-9.6-5.6c-18.3-10.6-36.6-21.1-54.9-31.7c-16.1-9.3-32.1-18.5-48.2-27.8c-19.7,9.6-12.8,3.9-8.4-0.2
			C203.3,177.6,204.7,176.4,204.1,176z"/>
		<path class="st7" d="M198.1,176c-22.1,12.9-44.3,25.7-66.4,38.6c-11,6.4-21.9,12.7-32.9,19.1c-0.6,0.4-1.2,0.7-1.7,1.1
			c-1.6,1.1-2.8,2.3-3.7,3.9c-0.4,0.8-0.7,1.7-0.8,2.8c-0.4,4.8,2.4,7.6,6.2,9.8c3.5,2.1,7.3,4.3,11.3,6.6
			c18.2,10.7,39.8,23.7,60.7,36.1c31.5,18.8,60.8,36.6,70.5,39.6c4.2,1.3,8.1,2.4,11.8,3.3c1.7,0.4,3.4,0.9,5.2,0.7
			c1.1-0.1,2.7-0.4,4.4-0.8c2.6-0.6,5.5-1.3,7.3-2c10.1-3.8,28.5-19.4,41.2-26.8c12.8-7.5,25.7-14.9,38.5-22.3
			c4.5-2.6,9.2-6.2,13.2-9.5c0.2-0.1,0.3-0.5,0.3-0.9c0.1-1.3-0.4-3.6-0.7-4.2c-0.5-1-3.9-2.3-4.9-2.9c-3-1.7-5.9-3.4-8.9-5.1
			c-10.6-6.1-21.1-12.2-31.7-18.3c-3.2-1.8-6.4-3.7-9.6-5.5c-18.2-10.5-36.3-21-54.5-31.5c-15.9-9.2-31.9-18.4-47.8-27.6
			c-18.9,8.7-13,3.2-9.2-0.9C197.5,177.6,198.8,176.4,198.1,176z"/>
		<path class="st8" d="M192.1,176c-22.1,12.8-44.2,25.7-66.3,38.5c-10.9,6.3-21.9,12.7-32.8,19c-0.6,0.4-1.2,0.7-1.7,1.1
			c-1.6,1.1-2.9,2.3-3.7,3.8c-0.4,0.8-0.7,1.7-0.9,2.8c-0.5,4.7,2.1,7.7,5.9,9.9c3.5,2,7.3,4.2,11.2,6.6
			c18.2,10.7,39.6,23.5,60.3,35.8c30.8,18.4,59.5,35.8,70,39.4c4.4,1.5,8.4,2.8,12.3,3.9c1.7,0.5,3.6,1.1,5.5,1
			c1.2-0.1,2.9-0.3,4.7-0.7c2.8-0.6,6-1.3,7.7-1.9c10.1-3.5,30.1-20.8,43.4-28.5c12.3-7.1,24.6-14.3,36.9-21.4
			c4.2-2.5,8.7-6.1,12.4-9.3c0.2-0.1,0.2-0.5,0.3-0.9c0.1-1.3-0.4-3.4-0.7-4c-0.5-0.9-3.7-2.2-4.7-2.8c-2.9-1.7-5.9-3.4-8.8-5.1
			c-10.5-6.1-21-12.1-31.5-18.2c-3.2-1.8-6.3-3.7-9.5-5.5c-18-10.4-36.1-20.8-54.1-31.3c-15.8-9.1-31.7-18.3-47.5-27.4
			c-18.1,7.9-13.1,2.4-9.9-1.6C191.7,177.6,192.8,176.4,192.1,176z"/>
		<path class="st9" d="M186.1,176c-22.1,12.8-44.1,25.6-66.2,38.4c-10.9,6.3-21.8,12.7-32.7,19c-0.6,0.4-1.2,0.7-1.7,1.1
			c-1.6,1.1-2.9,2.3-3.8,3.7c-0.5,0.7-0.8,1.6-0.9,2.7c-0.6,4.6,1.9,7.8,5.7,10c3.5,2,7.3,4.2,11.2,6.5
			c18.2,10.7,39.4,23.3,59.9,35.5c30.1,17.9,58.2,35,69.4,39.2c4.5,1.7,8.8,3.1,12.9,4.4c1.8,0.6,3.7,1.3,5.7,1.2c1.2,0,3-0.2,5-0.6
			c3-0.5,6.4-1.2,8.2-1.8c10.2-3.2,31.7-22.2,45.5-30.2c11.8-6.8,23.5-13.7,35.3-20.5c4-2.3,8.2-5.9,11.5-9.1
			c0.2-0.1,0.2-0.5,0.2-0.9c0-1.2-0.5-3.2-0.8-3.7c-0.5-0.9-3.6-2.1-4.5-2.7c-2.9-1.7-5.8-3.4-8.8-5.1c-10.4-6-20.9-12-31.3-18.1
			c-3.1-1.8-6.3-3.6-9.4-5.4c-17.9-10.3-35.8-20.7-53.8-31c-15.7-9.1-31.4-18.2-47.2-27.2c-17.3,7-13.3,1.6-10.7-2.4
			C185.9,177.6,186.9,176.4,186.1,176z"/>
		<path class="st10" d="M180.1,176c-22,12.8-44,25.6-66,38.3c-10.9,6.3-21.8,12.6-32.7,19c-0.6,0.4-1.2,0.7-1.7,1.1
			c-1.6,1.1-2.9,2.2-3.9,3.7c-0.5,0.7-0.8,1.6-1,2.7c-0.7,4.6,1.7,8,5.4,10.1c3.5,2,7.2,4.2,11.1,6.5c18.2,10.7,39.2,23.2,59.5,35.2
			c29.4,17.5,57,34.2,68.9,38.9c4.7,1.8,9.1,3.5,13.5,5c1.9,0.6,3.9,1.5,6,1.5c1.2,0,3.2-0.2,5.3-0.5c3.2-0.5,6.8-1.1,8.7-1.7
			c10.3-2.9,33.3-23.6,47.6-31.9c11.2-6.5,22.5-13.1,33.7-19.6c3.7-2.1,7.6-5.8,10.6-8.9c0.1-0.1,0.2-0.5,0.2-0.8
			c0-1.1-0.5-3-0.8-3.5c-0.5-0.8-3.4-2-4.3-2.5c-2.9-1.7-5.8-3.3-8.7-5c-10.4-6-20.7-12-31.1-17.9c-3.1-1.8-6.2-3.6-9.4-5.4
			c-17.8-10.3-35.6-20.6-53.4-30.8c-15.6-9-31.2-18-46.8-27.1c-16.5,6.2-13.5,0.9-11.4-3.1C180.1,177.6,181,176.5,180.1,176z"/>
		<path class="st11" d="M174.1,176c-22,12.8-43.9,25.5-65.9,38.3c-10.9,6.3-21.7,12.6-32.6,18.9c-0.6,0.4-1.2,0.7-1.7,1.1
			c-1.6,1.1-2.9,2.2-3.9,3.6c-0.5,0.7-0.9,1.6-1.1,2.6c-0.8,4.5,1.4,8.1,5.1,10.2c3.5,2,7.2,4.2,11,6.4c18.2,10.6,38.9,23,59.1,34.9
			c28.7,17,55.7,33.4,68.4,38.7c4.8,2,9.5,3.9,14,5.5c1.9,0.7,4.1,1.7,6.3,1.7c1.3,0.1,3.3-0.1,5.5-0.4c3.4-0.5,7.2-1.1,9.1-1.5
			c10.4-2.7,34.9-25,49.8-33.7c10.7-6.2,21.4-12.4,32.1-18.7c3.4-2,7.1-5.7,9.7-8.7c0.1-0.2,0.2-0.5,0.2-0.8c0-1.1-0.5-2.8-0.9-3.3
			c-0.6-0.8-3.2-1.9-4.1-2.4c-2.9-1.7-5.8-3.3-8.6-5c-10.3-5.9-20.6-11.9-30.8-17.8c-3.1-1.8-6.2-3.6-9.3-5.4
			c-17.7-10.2-35.3-20.4-53-30.6c-15.5-9-31-17.9-46.5-26.9c-15.7,5.4-12.9,0.4-12.2-3.8C174.5,177.7,175,176.5,174.1,176z"/>
		<path class="st12" d="M168.1,176c-21.9,12.7-43.8,25.5-65.8,38.2c-10.8,6.3-21.7,12.6-32.5,18.9c-0.6,0.3-1.2,0.7-1.7,1.1
			c-1.6,1-2.9,2.2-4,3.5c-0.5,0.7-1,1.5-1.2,2.6c-0.9,4.4,1.2,8.2,4.8,10.3c3.5,2,7.1,4.1,10.9,6.4c18.2,10.6,38.7,22.8,58.7,34.6
			c28,16.6,54.4,32.6,67.9,38.5c5,2.2,9.8,4.2,14.6,6.1c2,0.8,4.2,2,6.5,1.9c1.3,0.1,3.5,0,5.8-0.3c3.6-0.4,7.6-1,9.6-1.4
			c10.5-2.4,36.5-26.4,51.9-35.4c10.2-5.9,20.4-11.8,30.6-17.7c3.1-1.8,6.1-6.1,8.9-8.5c0.1-0.2,0.2-0.4,0.1-0.7
			c-0.1-1-0.6-2.6-0.9-3.1c-0.6-0.8-3-1.8-3.9-2.3c-2.9-1.6-5.7-3.3-8.6-5c-10.2-5.9-20.4-11.8-30.6-17.7c-3.1-1.8-6.2-3.6-9.2-5.3
			c-17.5-10.1-35.1-20.3-52.6-30.4c-15.4-8.9-30.8-17.8-46.2-26.7c-14.9,4.5-13-0.3-12.9-4.6C168.8,177.7,169.1,176.5,168.1,176z"/>
		<path class="st13" d="M162.1,176c-21.9,12.7-43.8,25.4-65.6,38.1c-10.8,6.3-21.6,12.6-32.5,18.9c-0.6,0.3-1.2,0.7-1.7,1
			c-1.6,1-2.9,2.1-4.1,3.4c-0.6,0.7-1,1.5-1.3,2.5c-1,4.3,0.9,8.4,4.5,10.4c3.5,2,7.1,4.1,10.8,6.3c18.2,10.6,38.5,22.7,58.3,34.3
			c27.3,16.1,53.1,31.8,67.4,38.3c5.2,2.4,10.2,4.6,15.1,6.6c2.1,0.9,4.4,2.2,6.8,2.2c1.3,0.1,3.6,0,6.1-0.2c3.8-0.4,8.1-0.9,10-1.3
			c10.5-2.2,38.1-27.8,54-37.1c9.7-5.6,19.3-11.2,29-16.8c2.9-1.7,5.5-6,8-8.3c0.1-0.2,0.1-0.4,0.1-0.7c-0.1-0.9-0.6-2.4-1-2.8
			c-0.6-0.7-2.8-1.7-3.7-2.2c-2.8-1.6-5.7-3.3-8.5-4.9c-10.1-5.9-20.3-11.7-30.4-17.6c-3.1-1.8-6.1-3.5-9.2-5.3
			c-17.4-10.1-34.8-20.1-52.2-30.2c-15.3-8.8-30.6-17.6-45.8-26.5c-14.1,3.7-13-1.1-13.7-5.3C163,177.7,163.1,176.6,162.1,176z"/>
		<path class="st14" d="M156.1,176c-21.8,12.7-43.7,25.4-65.5,38c-10.8,6.3-21.6,12.5-32.4,18.8c-0.6,0.3-1.2,0.7-1.7,1
			c-1.6,1-3,2.1-4.1,3.3c-0.6,0.6-1.1,1.5-1.3,2.5c-1.1,4.2,0.7,8.5,4.2,10.5c3.5,2,7.1,4.1,10.8,6.3c18.2,10.6,38.3,22.5,57.9,34.1
			c26.6,15.7,51.9,30.9,66.9,38c5.3,2.5,10.6,4.9,15.7,7.2c2.2,1,4.6,2.4,7,2.4c1.4,0.2,3.7,0.1,6.4-0.2c4-0.3,8.5-0.9,10.5-1.2
			c10.6-1.9,39.7-29.2,56.2-38.8c9.1-5.3,18.3-10.6,27.4-15.9c2.6-1.5,5-5.9,7.1-8.1c0.1-0.2,0.1-0.4,0.1-0.7
			c-0.1-0.9-0.7-2.2-1-2.6c-0.6-0.7-2.7-1.6-3.5-2.1c-2.8-1.6-5.6-3.3-8.5-4.9c-10.1-5.8-20.1-11.6-30.2-17.4
			c-3-1.8-6.1-3.5-9.1-5.3c-17.3-10-34.6-20-51.9-30c-15.2-8.8-30.3-17.5-45.5-26.3c-13.3,2.8-13.1-1.8-14.5-6
			C157.2,177.7,157.2,176.6,156.1,176z"/>
		<path class="st15" d="M150.1,176c-21.8,12.7-43.6,25.3-65.4,38c-10.8,6.3-21.6,12.5-32.3,18.8c-0.6,0.3-1.2,0.7-1.7,1
			c-1.6,1-3,2.1-4.2,3.3c-0.6,0.6-1.1,1.5-1.4,2.5c-1.2,4.1,0.5,8.6,3.9,10.6c3.5,2,7,4.1,10.7,6.2c18.2,10.6,38.1,22.3,57.6,33.8
			c25.9,15.2,50.6,30.1,66.4,37.8c5.5,2.7,10.9,5.3,16.2,7.7c2.2,1,4.7,2.6,7.3,2.7c1.4,0.2,3.9,0.1,6.6-0.1c4.2-0.3,8.9-0.8,11-1.1
			c10.7-1.7,41.3-30.6,58.3-40.5c8.6-5,17.2-10,25.8-15c2.3-1.4,4.4-5.8,6.3-7.9c0.1-0.2,0.1-0.4,0-0.6c-0.2-0.8-0.7-2-1.1-2.4
			c-0.6-0.6-2.5-1.5-3.3-1.9c-2.8-1.6-5.6-3.2-8.4-4.8c-10-5.8-20-11.5-30-17.3c-3-1.7-6-3.5-9-5.2c-17.2-9.9-34.3-19.8-51.5-29.7
			c-15.1-8.7-30.1-17.4-45.2-26.1c-12.5,2-13.2-2.6-15.2-6.7C151.4,177.7,151.2,176.6,150.1,176z"/>
		<path class="st16" d="M144.1,176c-21.8,12.6-43.5,25.3-65.3,37.9c-10.8,6.2-21.5,12.5-32.3,18.7c-0.6,0.3-1.2,0.7-1.7,1
			c-1.6,1-3,2-4.3,3.2c-0.7,0.6-1.2,1.4-1.5,2.4c-1.3,4,0.2,8.8,3.6,10.7c3.4,2,7,4.1,10.6,6.2c18.2,10.6,37.8,22.1,57.2,33.5
			c25.1,14.8,49.4,29.3,65.9,37.6c5.7,2.9,11.3,5.6,16.8,8.3c2.3,1.1,4.9,2.8,7.6,2.9c1.4,0.2,4,0.2,6.9,0c4.4-0.3,9.3-0.7,11.4-1
			c10.8-1.4,42.9-32,60.4-42.2c8.1-4.7,16.1-9.4,24.2-14.1c2.1-1.2,3.9-5.7,5.4-7.7c0-0.2,0.1-0.4,0-0.6c-0.2-0.7-0.7-1.8-1.2-2.2
			c-0.6-0.6-2.3-1.4-3.1-1.8c-2.8-1.6-5.6-3.2-8.3-4.8c-9.9-5.7-19.8-11.5-29.7-17.2c-3-1.7-6-3.5-9-5.2
			c-17-9.8-34.1-19.7-51.1-29.5c-14.9-8.6-29.9-17.3-44.8-25.9c-11.7,1.1-13.2-3.4-16-7.5C145.7,177.7,145.3,176.7,144.1,176z"/>
		<path class="st17" d="M138.1,176c-21.7,12.6-43.4,25.2-65.1,37.8c-10.7,6.2-21.5,12.5-32.2,18.7c-0.6,0.3-1.2,0.7-1.7,1
			c-1.6,1-3,2-4.3,3.1c-0.7,0.6-1.2,1.4-1.6,2.4c-1.4,4,0,8.9,3.3,10.8c3.4,2,7,4,10.5,6.1c18.2,10.6,37.6,22,56.8,33.2
			c24.4,14.3,48.1,28.4,65.4,37.4c5.9,3,11.6,6,17.4,8.9c2.4,1.2,5.1,3,7.8,3.2c1.5,0.3,4.2,0.3,7.2,0.1c4.6-0.2,9.8-0.7,11.9-0.9
			c10.8-1.2,44.5-33.4,62.6-43.9c7.5-4.4,15.1-8.8,22.6-13.1c1.8-1,3.3-5.6,4.5-7.5c0-0.2,0-0.4,0-0.6c-0.2-0.7-0.8-1.6-1.2-2
			c-0.6-0.6-2.1-1.3-2.9-1.7c-2.8-1.6-5.5-3.2-8.3-4.8c-9.8-5.7-19.7-11.4-29.5-17.1c-3-1.7-5.9-3.4-8.9-5.1
			c-16.9-9.8-33.8-19.5-50.7-29.3c-14.8-8.6-29.7-17.1-44.5-25.7c-10.9,0.3-13.9-3.7-16.7-8.2C139.8,177.8,139.3,176.7,138.1,176z"
			/>
		<path class="st18" d="M132.1,176c-21.7,12.6-43.3,25.2-65,37.7c-10.7,6.2-21.4,12.4-32.1,18.7c-0.6,0.3-1.2,0.7-1.7,1
			c-1.6,1-3,1.9-4.4,3c-0.7,0.6-1.3,1.4-1.6,2.3c-1.5,3.9-0.3,9,3,10.9c3.4,2,6.9,4,10.5,6.1c18.2,10.6,37.4,21.8,56.4,32.9
			c23.7,13.9,46.9,27.6,64.8,37.2c6,3.2,12,6.3,17.9,9.4c2.5,1.3,5.2,3.2,8.1,3.4c1.5,0.3,4.3,0.3,7.4,0.2
			c4.8-0.2,10.2-0.6,12.4-0.8c10.9-0.9,46.1-34.8,64.7-45.7c7-4.1,14-8.1,21-12.2c1.5-0.9,2.7-5.5,3.6-7.3c0-0.2,0-0.4,0-0.5
			c-0.3-0.6-0.8-1.4-1.3-1.7c-0.6-0.5-2-1.2-2.7-1.6c-2.7-1.6-5.5-3.2-8.2-4.7c-9.8-5.6-19.5-11.3-29.3-16.9
			c-2.9-1.7-5.9-3.4-8.8-5.1c-16.8-9.7-33.6-19.4-50.3-29.1c-14.7-8.5-29.5-17-44.2-25.5c-10.1-0.6-13.8-4.4-17.5-8.9
			C134,177.8,133.4,176.7,132.1,176z"/>
		<path class="st19" d="M126.1,176c-21.6,12.6-43.2,25.1-64.9,37.7c-10.7,6.2-21.4,12.4-32.1,18.6c-0.6,0.3-1.2,0.7-1.7,1
			c-1.6,0.9-3,1.9-4.5,2.9c-0.7,0.5-1.3,1.3-1.7,2.3c-1.6,3.8-0.5,9.2,2.8,11c3.4,2,6.9,4,10.4,6c18.2,10.6,37.2,21.6,56,32.6
			c23,13.4,45.6,26.7,64.3,36.9c6.2,3.4,12.3,6.7,18.5,10c2.5,1.3,5.4,3.4,8.4,3.7c1.5,0.3,4.5,0.4,7.7,0.3c5-0.2,10.6-0.6,12.8-0.7
			c11-0.7,47.6-36.2,66.8-47.4c6.5-3.8,13-7.5,19.5-11.3c1.2-0.7,2.2-5.4,2.8-7.1c0-0.2,0-0.4-0.1-0.5c-0.3-0.5-0.9-1.2-1.3-1.5
			c-0.6-0.5-1.8-1-2.5-1.5c-2.7-1.6-5.4-3.1-8.1-4.7c-9.7-5.6-19.4-11.2-29.1-16.8c-2.9-1.7-5.8-3.4-8.8-5.1
			c-16.7-9.6-33.3-19.2-50-28.9c-14.6-8.4-29.2-16.9-43.8-25.3c-9.2-1.4-13.7-5.3-18.2-9.6C128.3,177.8,127.4,176.7,126.1,176z"/>
		<path class="st20" d="M120.1,176c-21.6,12.5-43.2,25.1-64.7,37.6c-10.7,6.2-21.3,12.4-32,18.6c-0.6,0.3-1.1,0.7-1.7,1
			c-1.6,0.9-3.1,1.9-4.5,2.9c-0.8,0.5-1.4,1.3-1.8,2.2c-1.7,3.7-0.7,9.3,2.5,11.1c3.4,2,6.8,4,10.3,6c18.3,10.6,37,21.5,55.6,32.3
			c22.3,13,44.4,25.9,63.8,36.7c6.4,3.5,12.7,7,19,10.5c2.6,1.4,5.6,3.6,8.6,3.9c1.6,0.4,4.6,0.5,8,0.4c5.2-0.1,11-0.5,13.3-0.6
			c11.1-0.5,49.2-37.6,69-49.1c6-3.5,11.9-6.9,17.9-10.4c1-0.6,1.8-5.3,1.9-6.9c0-0.2,0-0.4-0.1-0.4c-0.4-0.5-0.9-1-1.4-1.3
			c-0.6-0.4-1.6-0.9-2.3-1.3c-2.7-1.6-5.4-3.1-8.1-4.7c-9.6-5.6-19.2-11.1-28.9-16.7c-2.9-1.7-5.8-3.4-8.7-5
			c-16.5-9.5-33.1-19.1-49.6-28.6c-14.5-8.4-28-18.7-43.5-25.1c-8.1-3.3-13.7-6.1-19-10.4C122.6,177.7,121.5,176.8,120.1,176z"/>
		<path class="st21" d="M114.1,176c-21.5,12.5-43.1,25-64.6,37.5c-10.7,6.2-21.3,12.4-32,18.6c-0.6,0.3-1.1,0.7-1.7,1
			c-1.6,0.9-3.1,1.8-4.6,2.8c-0.8,0.5-1.4,1.3-1.9,2.2c-1.8,3.6-1,9.4,2.2,11.2c3.4,2,6.8,3.9,10.2,5.9c18.3,10.6,36.8,21.3,55.2,32
			c21.6,12.5,43.1,25,63.3,36.5c6.5,3.7,13.1,7.4,19.6,11.1c2.7,1.5,5.7,3.8,8.9,4.2c1.6,0.4,4.8,0.5,8.3,0.5
			c5.3-0.1,11.4-0.5,13.8-0.5c11.2-0.2,50.8-39,71.1-50.8c5.4-3.2,10.9-6.3,16.3-9.5c0.7-0.4,1.2-5.2,1-6.7c0-0.2-0.1-0.3-0.1-0.4
			c-0.4-0.4-0.9-0.8-1.4-1.1c-0.6-0.4-1.4-0.8-2.1-1.2c-2.7-1.5-5.3-3.1-8-4.6c-9.5-5.5-19.1-11-28.6-16.5c-2.9-1.7-5.8-3.3-8.6-5
			c-16.4-9.5-32.8-18.9-49.2-28.4c-14.4-8.3-28.2-17.6-43.2-24.9c-7.4-3.6-13.7-7-19.7-11.1C116.8,177.7,115.5,176.8,114.1,176z"/>
		<path class="st0" d="M108.1,176c-32.7,19-65.4,38-98.1,57c-1.6,0.9-3.1,1.8-4.7,2.7c-4,2.3-4,11.2-0.1,13.5
			c3.4,2,6.8,3.9,10.1,5.9c18.3,10.6,36.5,21.1,54.8,31.7c20.9,12.1,41.9,24.2,62.8,36.3c6.7,3.9,13.4,7.8,20.1,11.6
			c2.7,1.6,5.9,4,9.2,4.4c4.1,1.2,18.8,0.2,22.7,0.2c11.2,0,52.4-40.4,73.2-52.5c4.9-2.8,9.8-5.7,14.7-8.5c0.5-0.3,0.5-6.6,0-6.8
			c-1.1-0.6-2.2-1.3-3.4-1.9c-15-8.6-30-17.3-44.9-26c-37.4-21.6-74.8-43.2-112.2-64.8C111.1,177.7,109.6,176.8,108.1,176z"/>
	</g>
	<g>
		<path class="st22" d="M5.2,239c-1.6-0.9-2.4-2.2-2.4-3.4c0,2.2,0,4.4,0,6.7c0,1.2,0.8,2.4,2.4,3.4l153.4,88.6l0-6.7L5.2,239z"/>
		<g>
			<path class="st1" d="M164.5,329.8c-2.3,0-4.5-0.5-6.2-1.5L4.9,239.7c-1.8-1-2.8-2.5-2.8-4c0-1.6,1-3,2.8-4l103.3-60l166.6,96.2
				l-104,60.4C169,329.3,166.8,329.8,164.5,329.8z"/>
			<path class="st23" d="M108.1,172.6l165.1,95.3l-102.9,59.8c-3.2,1.8-8.4,1.8-11.6,0L5.2,239c-3.2-1.8-3.2-4.9,0-6.7L108.1,172.6z
				"/>
			<g>
				<linearGradient id="SVGID_1_" gradientUnits="userSpaceOnUse" x1="4.1621" y1="250.9066" x2="270.5256" y2="250.9066">
					<stop  offset="0" style="stop-color:#4CD9ED"/>
					<stop  offset="0.5438" style="stop-color:#47A6EC"/>
					<stop  offset="1" style="stop-color:#437FEC"/>
				</linearGradient>
				<path class="st24" d="M164.5,327.7c-1.9,0-3.8-0.4-5.1-1.2L5.9,237.9c-1.1-0.6-1.7-1.4-1.7-2.2c0-0.8,0.6-1.6,1.7-2.2
					l102.2-59.4l0.1,0.1l162.3,93.8l-0.3,0.2l-100.6,58.4C168.3,327.3,166.4,327.7,164.5,327.7z M108.1,174.6l-102,59.2
					c-1,0.6-1.5,1.2-1.5,1.8c0,0.6,0.6,1.3,1.5,1.8l153.5,88.6c1.3,0.7,3.1,1.1,4.9,1.1c1.9,0,3.6-0.4,4.9-1.1l100.3-58.2
					L108.1,174.6z"/>
			</g>
		</g>
		<path class="st0" d="M170.3,327.7c-0.2,0.1-0.5,0.3-0.8,0.4c-0.1,0-0.2,0.1-0.2,0.1c-0.2,0.1-0.4,0.2-0.6,0.2
			c-0.1,0-0.2,0.1-0.2,0.1c-0.1,0-0.3,0.1-0.4,0.1c-0.1,0-0.2,0.1-0.3,0.1c-0.1,0-0.3,0.1-0.4,0.1c-0.1,0-0.2,0-0.3,0.1
			c-0.3,0-0.6,0.1-0.9,0.1c-0.1,0-0.2,0-0.3,0c-0.2,0-0.4,0-0.6,0c-0.1,0-0.2,0-0.4,0c-0.1,0-0.3,0-0.4,0c-0.1,0-0.3,0-0.4,0
			c-0.1,0-0.3,0-0.4,0c-0.1,0-0.3,0-0.4,0c-0.1,0-0.3,0-0.4,0c-0.1,0-0.2,0-0.4,0c-0.1,0-0.3-0.1-0.4-0.1c-0.1,0-0.2,0-0.3-0.1
			c-0.2,0-0.3-0.1-0.5-0.1c-0.1,0-0.2,0-0.3-0.1c-0.3-0.1-0.6-0.2-0.9-0.3c-0.1-0.1-0.3-0.1-0.4-0.2c-0.1,0-0.1-0.1-0.2-0.1
			c-0.2-0.1-0.4-0.2-0.6-0.3l0,6.7c0.2,0.1,0.4,0.2,0.6,0.3c0.1,0,0.1,0,0.2,0.1c0.1,0.1,0.2,0.1,0.4,0.2c0,0,0,0,0,0
			c0.3,0.1,0.6,0.2,0.9,0.3c0,0,0,0,0.1,0c0.1,0,0.1,0,0.2,0c0.2,0,0.3,0.1,0.5,0.1c0,0,0.1,0,0.1,0c0.1,0,0.1,0,0.2,0
			c0.1,0,0.3,0.1,0.4,0.1c0.1,0,0.1,0,0.2,0c0.1,0,0.1,0,0.2,0c0.1,0,0.3,0,0.4,0c0.1,0,0.1,0,0.2,0l0,0c0.1,0,0.1,0,0.2,0
			c0.1,0,0.3,0,0.4,0c0.1,0,0.1,0,0.2,0c0,0,0.1,0,0.2,0c0.2,0,0.3,0,0.5,0c0.1,0,0.2,0,0.2,0c0,0,0.1,0,0.1,0c0.2,0,0.4,0,0.6,0
			c0.1,0,0.1,0,0.2,0c0,0,0,0,0.1,0c0.3,0,0.6-0.1,0.9-0.1c0,0,0,0,0,0c0.1,0,0.2,0,0.2-0.1c0.2,0,0.3-0.1,0.5-0.1
			c0.1,0,0.2-0.1,0.3-0.1c0.1,0,0.3-0.1,0.4-0.1c0,0,0.1,0,0.1,0c0.1,0,0.1,0,0.2-0.1c0.2-0.1,0.4-0.1,0.6-0.2
			c0.1,0,0.2-0.1,0.2-0.1c0.3-0.1,0.5-0.2,0.8-0.4l102.9-59.8l0-6.7L170.3,327.7z"/>
	</g>
	<g>
		<g class="st25">
			<g>
				<polygon class="st22" points="111.7,192 107.5,194.5 99,189.6 103.2,187.1 				"/>
			</g>
			<g>
				<polygon class="st0" points="111.7,192 111.7,193.4 107.5,195.8 107.5,194.5 				"/>
			</g>
			<g>
				<polygon class="st26" points="107.5,194.5 107.5,195.8 99,190.9 99,189.6 				"/>
			</g>
		</g>
		<g class="st25">
			<g>
				<polygon class="st22" points="104.5,196.2 96.1,201.1 87.6,196.2 96,191.3 				"/>
			</g>
			<g>
				<polygon class="st0" points="104.5,196.2 104.5,197.5 96.1,202.4 96.1,201.1 				"/>
			</g>
			<g>
				<polygon class="st26" points="96.1,201.1 96.1,202.4 87.6,197.5 87.6,196.2 				"/>
			</g>
		</g>
		<g class="st25">
			<g>
				<polygon class="st22" points="121.7,197.8 117.5,200.3 109,195.3 113.2,192.9 				"/>
			</g>
			<g>
				<polygon class="st0" points="121.7,197.8 121.7,199.1 117.5,201.6 117.5,200.3 				"/>
			</g>
			<g>
				<polygon class="st26" points="117.5,200.3 117.5,201.6 109,196.7 109,195.3 				"/>
			</g>
		</g>
		<g class="st25">
			<g>
				<polygon class="st22" points="114.5,202 106.1,206.9 97.6,202 106,197.1 				"/>
			</g>
			<g>
				<polygon class="st0" points="114.5,202 114.5,203.3 106.1,208.2 106.1,206.9 				"/>
			</g>
			<g>
				<polygon class="st26" points="106.1,206.9 106.1,208.2 97.6,203.3 97.6,202 				"/>
			</g>
		</g>
		<g class="st25">
			<g>
				<polygon class="st22" points="131.7,203.6 127.5,206 119,201.1 123.2,198.7 				"/>
			</g>
			<g>
				<polygon class="st0" points="131.7,203.6 131.7,204.9 127.5,207.4 127.5,206 				"/>
			</g>
			<g>
				<polygon class="st26" points="127.5,206 127.5,207.4 119,202.5 119,201.1 				"/>
			</g>
		</g>
		<g class="st25">
			<g>
				<polygon class="st22" points="124.5,207.7 116.1,212.7 107.6,207.8 116,202.8 				"/>
			</g>
			<g>
				<polygon class="st0" points="124.5,207.7 124.5,209.1 116.1,214 116.1,212.7 				"/>
			</g>
			<g>
				<polygon class="st26" points="116.1,212.7 116.1,214 107.6,209.1 107.6,207.8 				"/>
			</g>
		</g>
		<g class="st25">
			<g>
				<polygon class="st22" points="141.7,209.3 137.5,211.8 129,206.9 133.2,204.4 				"/>
			</g>
			<g>
				<polygon class="st0" points="141.7,209.3 141.7,210.7 137.5,213.1 137.5,211.8 				"/>
			</g>
			<g>
				<polygon class="st26" points="137.5,211.8 137.5,213.1 129,208.2 129,206.9 				"/>
			</g>
		</g>
		<g class="st25">
			<g>
				<polygon class="st22" points="134.5,213.5 126.1,218.4 117.6,213.5 126,208.6 				"/>
			</g>
			<g>
				<polygon class="st0" points="134.5,213.5 134.5,214.9 126.1,219.8 126.1,218.4 				"/>
			</g>
			<g>
				<polygon class="st26" points="126.1,218.4 126.1,219.8 117.6,214.9 117.6,213.5 				"/>
			</g>
		</g>
		<g class="st25">
			<g>
				<polygon class="st22" points="151.7,215.1 147.5,217.6 139,212.7 143.2,210.2 				"/>
			</g>
			<g>
				<polygon class="st0" points="151.7,215.1 151.7,216.4 147.5,218.9 147.5,217.6 				"/>
			</g>
			<g>
				<polygon class="st26" points="147.5,217.6 147.5,218.9 139,214 139,212.7 				"/>
			</g>
		</g>
		<g class="st25">
			<g>
				<polygon class="st22" points="144.5,219.3 136,224.2 127.6,219.3 136,214.4 				"/>
			</g>
			<g>
				<polygon class="st0" points="144.5,219.3 144.5,220.6 136,225.5 136,224.2 				"/>
			</g>
			<g>
				<polygon class="st26" points="136,224.2 136,225.5 127.5,220.6 127.6,219.3 				"/>
			</g>
		</g>
		<g class="st25">
			<g>
				<polygon class="st22" points="161.7,220.9 157.5,223.3 149,218.4 153.2,216 				"/>
			</g>
			<g>
				<polygon class="st0" points="161.7,220.9 161.7,222.2 157.4,224.7 157.5,223.3 				"/>
			</g>
			<g>
				<polygon class="st26" points="157.5,223.3 157.4,224.7 149,219.8 149,218.4 				"/>
			</g>
		</g>
		<g class="st25">
			<g>
				<polygon class="st22" points="154.5,225.1 146,230 137.5,225.1 146,220.2 				"/>
			</g>
			<g>
				<polygon class="st0" points="154.5,225.1 154.5,226.4 146,231.3 146,230 				"/>
			</g>
			<g>
				<polygon class="st26" points="146,230 146,231.3 137.5,226.4 137.5,225.1 				"/>
			</g>
		</g>
		<g class="st25">
			<g>
				<polygon class="st22" points="171.7,226.7 167.4,229.1 159,224.2 163.2,221.8 				"/>
			</g>
			<g>
				<polygon class="st0" points="171.7,226.7 171.7,228 167.4,230.4 167.4,229.1 				"/>
			</g>
			<g>
				<polygon class="st26" points="167.4,229.1 167.4,230.4 159,225.5 159,224.2 				"/>
			</g>
		</g>
		<g class="st25">
			<g>
				<polygon class="st22" points="164.5,230.8 156,235.7 147.5,230.8 156,225.9 				"/>
			</g>
			<g>
				<polygon class="st0" points="164.5,230.8 164.5,232.2 156,237.1 156,235.7 				"/>
			</g>
			<g>
				<polygon class="st26" points="156,235.7 156,237.1 147.5,232.2 147.5,230.8 				"/>
			</g>
		</g>
		<g class="st25">
			<g>
				<polygon class="st22" points="99.6,204.9 91.1,209.8 77.6,201.9 86,197 				"/>
			</g>
			<g>
				<polygon class="st0" points="99.6,204.9 99.6,206.2 91.1,211.1 91.1,209.8 				"/>
			</g>
			<g>
				<polygon class="st26" points="91.1,209.8 91.1,211.1 77.6,203.3 77.6,201.9 				"/>
			</g>
		</g>
		<g class="st25">
			<g>
				<polygon class="st22" points="109.6,210.6 101.1,215.5 92.6,210.6 101.1,205.7 				"/>
			</g>
			<g>
				<polygon class="st0" points="109.6,210.6 109.6,212 101.1,216.9 101.1,215.5 				"/>
			</g>
			<g>
				<polygon class="st26" points="101.1,215.5 101.1,216.9 92.6,212 92.6,210.6 				"/>
			</g>
		</g>
		<g class="st25">
			<g>
				<polygon class="st22" points="119.6,216.4 111.1,221.3 102.6,216.4 111.1,211.5 				"/>
			</g>
			<g>
				<polygon class="st0" points="119.6,216.4 119.6,217.7 111.1,222.7 111.1,221.3 				"/>
			</g>
			<g>
				<polygon class="st26" points="111.1,221.3 111.1,222.7 102.6,217.7 102.6,216.4 				"/>
			</g>
		</g>
		<g class="st25">
			<g>
				<polygon class="st22" points="129.6,222.2 121.1,227.1 112.6,222.2 121.1,217.3 				"/>
			</g>
			<g>
				<polygon class="st0" points="129.6,222.2 129.6,223.5 121.1,228.4 121.1,227.1 				"/>
			</g>
			<g>
				<polygon class="st26" points="121.1,227.1 121.1,228.4 112.6,223.5 112.6,222.2 				"/>
			</g>
		</g>
		<g class="st25">
			<g>
				<polygon class="st22" points="139.5,227.9 131.1,232.9 122.6,227.9 131.1,223 				"/>
			</g>
			<g>
				<polygon class="st0" points="139.5,227.9 139.5,229.3 131.1,234.2 131.1,232.9 				"/>
			</g>
			<g>
				<polygon class="st26" points="131.1,232.9 131.1,234.2 122.6,229.3 122.6,227.9 				"/>
			</g>
		</g>
		<g class="st25">
			<g>
				<polygon class="st22" points="149.5,233.7 141.1,238.6 132.6,233.7 141,228.8 				"/>
			</g>
			<g>
				<polygon class="st0" points="149.5,233.7 149.5,235.1 141.1,240 141.1,238.6 				"/>
			</g>
			<g>
				<polygon class="st26" points="141.1,238.6 141.1,240 132.6,235.1 132.6,233.7 				"/>
			</g>
		</g>
		<g class="st25">
			<g>
				<polygon class="st22" points="94.6,213.5 86.2,218.4 67.7,207.7 76.2,202.8 				"/>
			</g>
			<g>
				<polygon class="st0" points="94.6,213.5 94.6,214.9 86.2,219.8 86.2,218.4 				"/>
			</g>
			<g>
				<polygon class="st26" points="86.2,218.4 86.2,219.8 67.7,209.1 67.7,207.7 				"/>
			</g>
		</g>
		<g class="st25">
			<g>
				<polygon class="st22" points="79.7,216.4 71.3,221.3 57.7,213.5 66.2,208.6 				"/>
			</g>
			<g>
				<polygon class="st0" points="79.7,216.4 79.7,217.7 71.3,222.6 71.3,221.3 				"/>
			</g>
			<g>
				<polygon class="st26" points="71.3,221.3 71.3,222.6 57.7,214.8 57.7,213.5 				"/>
			</g>
		</g>
		<g class="st25">
			<g>
				<polygon class="st22" points="104.6,219.3 96.2,224.2 87.7,219.3 96.1,214.4 				"/>
			</g>
			<g>
				<polygon class="st0" points="104.6,219.3 104.6,220.6 96.2,225.5 96.2,224.2 				"/>
			</g>
			<g>
				<polygon class="st26" points="96.2,224.2 96.2,225.5 87.7,220.6 87.7,219.3 				"/>
			</g>
		</g>
		<g class="st25">
			<g>
				<polygon class="st22" points="89.7,222.2 81.3,227.1 72.8,222.2 81.2,217.3 				"/>
			</g>
			<g>
				<polygon class="st0" points="89.7,222.2 89.7,223.5 81.3,228.4 81.3,227.1 				"/>
			</g>
			<g>
				<polygon class="st26" points="81.3,227.1 81.3,228.4 72.8,223.5 72.8,222.2 				"/>
			</g>
		</g>
		<g class="st25">
			<g>
				<polygon class="st22" points="114.6,225.1 106.2,230 97.7,225.1 106.1,220.2 				"/>
			</g>
			<g>
				<polygon class="st0" points="114.6,225.1 114.6,226.4 106.2,231.3 106.2,230 				"/>
			</g>
			<g>
				<polygon class="st26" points="106.2,230 106.2,231.3 97.7,226.4 97.7,225.1 				"/>
			</g>
		</g>
		<g class="st25">
			<g>
				<polygon class="st22" points="99.7,227.9 91.3,232.9 82.8,227.9 91.2,223 				"/>
			</g>
			<g>
				<polygon class="st0" points="99.7,227.9 99.7,229.3 91.2,234.2 91.3,232.9 				"/>
			</g>
			<g>
				<polygon class="st26" points="91.3,232.9 91.2,234.2 82.8,229.3 82.8,227.9 				"/>
			</g>
		</g>
		<g class="st25">
			<g>
				<polygon class="st22" points="124.6,230.8 116.2,235.7 107.7,230.8 116.1,225.9 				"/>
			</g>
			<g>
				<polygon class="st0" points="124.6,230.8 124.6,232.2 116.2,237.1 116.2,235.7 				"/>
			</g>
			<g>
				<polygon class="st26" points="116.2,235.7 116.2,237.1 107.7,232.2 107.7,230.8 				"/>
			</g>
		</g>
		<g class="st25">
			<g>
				<polygon class="st22" points="109.7,233.7 101.2,238.6 92.7,233.7 101.2,228.8 				"/>
			</g>
			<g>
				<polygon class="st0" points="109.7,233.7 109.7,235.1 101.2,240 101.2,238.6 				"/>
			</g>
			<g>
				<polygon class="st26" points="101.2,238.6 101.2,240 92.7,235.1 92.7,233.7 				"/>
			</g>
		</g>
		<g class="st25">
			<g>
				<polygon class="st22" points="134.6,236.6 126.2,241.5 117.7,236.6 126.1,231.7 				"/>
			</g>
			<g>
				<polygon class="st0" points="134.6,236.6 134.6,237.9 126.2,242.8 126.2,241.5 				"/>
			</g>
			<g>
				<polygon class="st26" points="126.2,241.5 126.2,242.8 117.7,237.9 117.7,236.6 				"/>
			</g>
		</g>
		<g class="st25">
			<g>
				<polygon class="st22" points="119.7,239.5 111.2,244.4 102.7,239.5 111.2,234.6 				"/>
			</g>
			<g>
				<polygon class="st0" points="119.7,239.5 119.7,240.8 111.2,245.7 111.2,244.4 				"/>
			</g>
			<g>
				<polygon class="st26" points="111.2,244.4 111.2,245.7 102.7,240.8 102.7,239.5 				"/>
			</g>
		</g>
		<g class="st25">
			<g>
				<polygon class="st22" points="181.7,232.4 177.4,234.9 169,230 173.2,227.5 				"/>
			</g>
			<g>
				<polygon class="st0" points="181.7,232.4 181.7,233.8 177.4,236.2 177.4,234.9 				"/>
			</g>
			<g>
				<polygon class="st26" points="177.4,234.9 177.4,236.2 168.9,231.3 169,230 				"/>
			</g>
		</g>
		<g class="st25">
			<g>
				<polygon class="st22" points="174.5,236.6 166,241.5 157.5,236.6 166,231.7 				"/>
			</g>
			<g>
				<polygon class="st0" points="174.5,236.6 174.5,237.9 166,242.8 166,241.5 				"/>
			</g>
			<g>
				<polygon class="st26" points="166,241.5 166,242.8 157.5,237.9 157.5,236.6 				"/>
			</g>
		</g>
		<g class="st25">
			<g>
				<polygon class="st26" points="147.6,242.4 147.6,243.7 142.6,240.8 142.6,239.5 				"/>
			</g>
			<g>
				<polygon class="st0" points="164.5,242.4 164.5,243.7 156.1,248.6 156.1,247.3 				"/>
			</g>
			<g>
				<polygon class="st26" points="136.2,247.3 136.1,248.6 127.7,243.7 127.7,242.4 				"/>
			</g>
			<g>
				<polygon class="st22" points="144.6,242.4 136.2,247.3 127.7,242.4 136.1,237.5 				"/>
			</g>
			<g>
				<polygon class="st0" points="144.6,242.4 144.6,243.7 136.1,248.6 136.2,247.3 				"/>
			</g>
			<g>
				<polygon class="st22" points="164.5,242.4 156.1,247.3 146.1,253.1 137.6,248.1 147.6,242.4 142.6,239.5 151,234.6 156,237.5 
					160.3,239.9 				"/>
			</g>
			<g>
				<polygon class="st0" points="156.1,247.3 156.1,248.6 146.1,254.4 146.1,253.1 				"/>
			</g>
			<g>
				<polygon class="st26" points="146.1,253.1 146.1,254.4 137.6,249.5 137.6,248.1 				"/>
			</g>
		</g>
		<g class="st25">
			<g>
				<polygon class="st22" points="129.7,245.3 121.2,250.2 112.7,245.3 121.2,240.4 				"/>
			</g>
			<g>
				<polygon class="st0" points="129.7,245.3 129.7,246.6 121.2,251.5 121.2,250.2 				"/>
			</g>
			<g>
				<polygon class="st26" points="121.2,250.2 121.2,251.5 112.7,246.6 112.7,245.3 				"/>
			</g>
		</g>
		<g class="st25">
			<g>
				<polygon class="st22" points="144.6,253.9 136.2,258.8 122.7,251 131.2,246.1 				"/>
			</g>
			<g>
				<polygon class="st0" points="144.6,253.9 144.6,255.2 136.2,260.1 136.2,258.8 				"/>
			</g>
			<g>
				<polygon class="st26" points="136.2,258.8 136.2,260.1 122.7,252.4 122.7,251 				"/>
			</g>
		</g>
		<g class="st25">
			<g>
				<polygon class="st22" points="74.8,225.1 66.3,230 47.8,219.3 56.3,214.4 				"/>
			</g>
			<g>
				<polygon class="st0" points="74.8,225.1 74.8,226.4 66.3,231.3 66.3,230 				"/>
			</g>
			<g>
				<polygon class="st26" points="66.3,230 66.3,231.3 47.8,220.6 47.8,219.3 				"/>
			</g>
		</g>
		<g class="st25">
			<g>
				<polygon class="st22" points="124.7,253.9 116.3,258.8 67.8,230.8 76.3,225.9 				"/>
			</g>
			<g>
				<polygon class="st0" points="124.7,253.9 124.7,255.2 116.3,260.2 116.3,258.8 				"/>
			</g>
			<g>
				<polygon class="st26" points="116.3,258.8 116.3,260.2 67.8,232.2 67.8,230.8 				"/>
			</g>
		</g>
		<g class="st25">
			<g>
				<polygon class="st22" points="134.7,259.7 126.3,264.6 117.8,259.7 126.2,254.8 				"/>
			</g>
			<g>
				<polygon class="st0" points="134.7,259.7 134.7,261 126.3,265.9 126.3,264.6 				"/>
			</g>
			<g>
				<polygon class="st26" points="126.3,264.6 126.3,265.9 117.8,261 117.8,259.7 				"/>
			</g>
		</g>
		<g class="st25">
			<g>
				<polygon class="st22" points="200.6,243.4 196.4,245.8 187.9,240.9 192.2,238.5 				"/>
			</g>
			<g>
				<polygon class="st0" points="200.6,243.4 200.6,244.7 196.4,247.2 196.4,245.8 				"/>
			</g>
			<g>
				<polygon class="st23" points="196.4,245.8 196.4,247.2 187.9,242.3 187.9,240.9 				"/>
			</g>
		</g>
		<g class="st25">
			<g>
				<polygon class="st22" points="193.4,247.6 185,252.5 176.5,247.6 184.9,242.7 				"/>
			</g>
			<g>
				<polygon class="st0" points="193.4,247.6 193.4,248.9 185,253.8 185,252.5 				"/>
			</g>
			<g>
				<polygon class="st23" points="185,252.5 185,253.8 176.5,248.9 176.5,247.6 				"/>
			</g>
		</g>
		<g class="st25">
			<g>
				<polygon class="st22" points="210.6,249.2 206.4,251.6 197.9,246.7 202.1,244.3 				"/>
			</g>
			<g>
				<polygon class="st0" points="210.6,249.2 210.6,250.5 206.4,252.9 206.4,251.6 				"/>
			</g>
			<g>
				<polygon class="st23" points="206.4,251.6 206.4,252.9 197.9,248 197.9,246.7 				"/>
			</g>
		</g>
		<g class="st25">
			<g>
				<polygon class="st22" points="203.4,253.3 195,258.3 186.5,253.3 194.9,248.4 				"/>
			</g>
			<g>
				<polygon class="st0" points="203.4,253.3 203.4,254.7 195,259.6 195,258.3 				"/>
			</g>
			<g>
				<polygon class="st23" points="195,258.3 195,259.6 186.5,254.7 186.5,253.3 				"/>
			</g>
		</g>
		<g class="st25">
			<g>
				<polygon class="st22" points="183.5,253.3 175.1,258.3 166.6,253.3 175,248.4 				"/>
			</g>
			<g>
				<polygon class="st0" points="183.5,253.3 183.5,254.7 175.1,259.6 175.1,258.3 				"/>
			</g>
			<g>
				<polygon class="st23" points="175.1,258.3 175.1,259.6 166.6,254.7 166.6,253.3 				"/>
			</g>
		</g>
		<g class="st25">
			<g>
				<polygon class="st22" points="193.5,259.1 185.1,264 176.6,259.1 185,254.2 				"/>
			</g>
			<g>
				<polygon class="st0" points="193.5,259.1 193.5,260.4 185.1,265.4 185.1,264 				"/>
			</g>
			<g>
				<polygon class="st23" points="185.1,264 185.1,265.4 176.6,260.4 176.6,259.1 				"/>
			</g>
		</g>
		<g class="st25">
			<g>
				<polygon class="st22" points="227.1,258.7 222.9,261.1 214.4,256.2 218.6,253.8 				"/>
			</g>
			<g>
				<polygon class="st0" points="227.1,258.7 227.1,260 222.9,262.5 222.9,261.1 				"/>
			</g>
			<g>
				<polygon class="st23" points="222.9,261.1 222.9,262.5 214.4,257.6 214.4,256.2 				"/>
			</g>
		</g>
		<g class="st25">
			<g>
				<polygon class="st22" points="219.9,262.9 211.5,267.8 203,262.9 211.4,258 				"/>
			</g>
			<g>
				<polygon class="st0" points="219.9,262.9 219.9,264.2 211.5,269.1 211.5,267.8 				"/>
			</g>
			<g>
				<polygon class="st23" points="211.5,267.8 211.5,269.1 203,264.2 203,262.9 				"/>
			</g>
		</g>
		<g class="st25">
			<g>
				<polygon class="st22" points="237.1,264.5 232.9,266.9 224.4,262 228.6,259.6 				"/>
			</g>
			<g>
				<polygon class="st0" points="237.1,264.5 237.1,265.8 232.9,268.2 232.9,266.9 				"/>
			</g>
			<g>
				<polygon class="st23" points="232.9,266.9 232.9,268.2 224.4,263.3 224.4,262 				"/>
			</g>
		</g>
		<g class="st25">
			<g>
				<polygon class="st22" points="229.9,268.6 221.5,273.5 213,268.6 221.4,263.7 				"/>
			</g>
			<g>
				<polygon class="st0" points="229.9,268.6 229.9,270 221.5,274.9 221.5,273.5 				"/>
			</g>
			<g>
				<polygon class="st23" points="221.5,273.5 221.5,274.9 213,270 213,268.6 				"/>
			</g>
		</g>
		<g class="st25">
			<g>
				<polygon class="st22" points="247.1,270.2 242.9,272.7 234.4,267.8 238.6,265.3 				"/>
			</g>
			<g>
				<polygon class="st0" points="247.1,270.2 247.1,271.6 242.9,274 242.9,272.7 				"/>
			</g>
			<g>
				<polygon class="st23" points="242.9,272.7 242.9,274 234.4,269.1 234.4,267.8 				"/>
			</g>
		</g>
		<g class="st25">
			<g>
				<polygon class="st22" points="239.9,274.4 231.5,279.3 223,274.4 231.4,269.5 				"/>
			</g>
			<g>
				<polygon class="st0" points="239.9,274.4 239.9,275.7 231.5,280.6 231.5,279.3 				"/>
			</g>
			<g>
				<polygon class="st23" points="231.5,279.3 231.5,280.6 223,275.7 223,274.4 				"/>
			</g>
		</g>
		<g class="st25">
			<g>
				<polygon class="st22" points="210,268.6 201.5,273.5 193.1,268.6 201.5,263.7 				"/>
			</g>
			<g>
				<polygon class="st0" points="210,268.6 210,270 201.5,274.9 201.5,273.5 				"/>
			</g>
			<g>
				<polygon class="st26" points="201.5,273.5 201.5,274.9 193.1,270 193.1,268.6 				"/>
			</g>
		</g>
		<g class="st25">
			<g>
				<polygon class="st22" points="220,274.4 211.5,279.3 203,274.4 211.5,269.5 				"/>
			</g>
			<g>
				<polygon class="st0" points="220,274.4 220,275.7 211.5,280.6 211.5,279.3 				"/>
			</g>
			<g>
				<polygon class="st26" points="211.5,279.3 211.5,280.6 203,275.7 203,274.4 				"/>
			</g>
		</g>
		<g class="st25">
			<g>
				<polygon class="st22" points="230,280.2 221.5,285.1 213,280.2 221.5,275.3 				"/>
			</g>
			<g>
				<polygon class="st0" points="230,280.2 230,281.5 221.5,286.4 221.5,285.1 				"/>
			</g>
			<g>
				<polygon class="st26" points="221.5,285.1 221.5,286.4 213,281.5 213,280.2 				"/>
			</g>
		</g>
		<g class="st25">
			<g>
				<polygon class="st22" points="200.1,274.4 191.6,279.3 183.1,274.4 191.6,269.5 				"/>
			</g>
			<g>
				<polygon class="st0" points="200.1,274.4 200,275.7 191.6,280.6 191.6,279.3 				"/>
			</g>
			<g>
				<polygon class="st26" points="191.6,279.3 191.6,280.6 183.1,275.7 183.1,274.4 				"/>
			</g>
		</g>
		<g class="st25">
			<g>
				<polygon class="st22" points="210.1,280.2 201.6,285.1 193.1,280.2 201.6,275.3 				"/>
			</g>
			<g>
				<polygon class="st0" points="210.1,280.2 210,281.5 201.6,286.4 201.6,285.1 				"/>
			</g>
			<g>
				<polygon class="st26" points="201.6,285.1 201.6,286.4 193.1,281.5 193.1,280.2 				"/>
			</g>
		</g>
		<g class="st25">
			<g>
				<polygon class="st22" points="220,286 211.6,290.9 203.1,285.9 211.5,281 				"/>
			</g>
			<g>
				<polygon class="st0" points="220,286 220,287.3 211.6,292.2 211.6,290.9 				"/>
			</g>
			<g>
				<polygon class="st26" points="211.6,290.9 211.6,292.2 203.1,287.3 203.1,285.9 				"/>
			</g>
		</g>
		<g class="st25">
			<g>
				<polygon class="st22" points="190.1,280.2 181.7,285.1 173.2,280.2 181.6,275.3 				"/>
			</g>
			<g>
				<polygon class="st0" points="190.1,280.2 190.1,281.5 181.7,286.4 181.7,285.1 				"/>
			</g>
			<g>
				<polygon class="st26" points="181.7,285.1 181.7,286.4 173.2,281.5 173.2,280.2 				"/>
			</g>
		</g>
		<g class="st25">
			<g>
				<polygon class="st22" points="200.1,285.9 191.7,290.9 183.2,285.9 191.6,281 				"/>
			</g>
			<g>
				<polygon class="st0" points="200.1,285.9 200.1,287.3 191.7,292.2 191.7,290.9 				"/>
			</g>
			<g>
				<polygon class="st26" points="191.7,290.9 191.7,292.2 183.2,287.3 183.2,285.9 				"/>
			</g>
		</g>
		<g class="st25">
			<g>
				<polygon class="st22" points="190.2,291.7 181.8,296.7 163.2,285.9 171.7,281 				"/>
			</g>
			<g>
				<polygon class="st0" points="190.2,291.7 190.2,293.1 181.8,298 181.8,296.7 				"/>
			</g>
			<g>
				<polygon class="st26" points="181.8,296.7 181.8,298 163.2,287.3 163.2,285.9 				"/>
			</g>
		</g>
		<g class="st25">
			<g>
				<polygon class="st22" points="210,291.8 191.7,302.4 183.2,297.5 201.5,286.9 				"/>
			</g>
			<g>
				<polygon class="st0" points="210,291.8 210,293.1 191.7,303.7 191.7,302.4 				"/>
			</g>
			<g>
				<polygon class="st26" points="191.7,302.4 191.7,303.7 183.2,298.8 183.2,297.5 				"/>
			</g>
		</g>
	</g>
	<g class="st25">
		<g>
			<polygon class="st22" points="139.2,281 114.7,295.2 61.3,264.4 85.9,250.2 			"/>
			<g>
				<linearGradient id="SVGID_2_" gradientUnits="userSpaceOnUse" x1="63.9768" y1="272.6932" x2="136.5892" y2="272.6932">
					<stop  offset="0" style="stop-color:#4CD9ED"/>
					<stop  offset="0.5438" style="stop-color:#47A6EC"/>
					<stop  offset="1" style="stop-color:#437FEC"/>
				</linearGradient>
				<path class="st27" d="M114.7,293.7l-0.1-0.1L64,264.4l0.3-0.2l21.6-12.5l0.1,0.1l50.6,29.2l-0.3,0.2L114.7,293.7z M64.8,264.4
					l49.9,28.8l21-12.2l-49.9-28.8L64.8,264.4z"/>
			</g>
		</g>
		<g>
			<polygon class="st0" points="139.2,281 139.2,281.2 114.7,295.5 114.7,295.2 			"/>
		</g>
		<g>
			<polygon class="st22" points="114.7,295.2 114.7,295.5 61.3,264.7 61.3,264.4 			"/>
		</g>
	</g>
	<g>
		<path class="st22" d="M114.3,50.3c-0.1,0-0.1-0.1-0.2-0.1c-0.1,0-0.2-0.1-0.2-0.1c-0.1,0-0.1,0-0.2-0.1l0,0c0,0,0,0,0,0
			c-0.1,0-0.1-0.1-0.2-0.1c-0.1,0-0.2-0.1-0.2-0.1c0,0,0,0,0,0c0,0,0,0,0,0c-0.1,0-0.1,0-0.2-0.1c-0.1,0-0.2,0-0.2-0.1
			c0,0-0.1,0-0.1,0c0,0,0,0-0.1,0c0,0,0,0-0.1,0c-0.1,0-0.2,0-0.3,0c-0.1,0-0.1,0-0.2,0c0,0,0,0-0.1,0c0,0,0,0,0,0
			c-0.1,0-0.2,0-0.3,0c-0.1,0-0.1,0-0.1,0c0,0-0.1,0-0.1,0c0,0-0.1,0-0.1,0l0,0h0l0,0c-0.1,0-0.2,0-0.3,0h0c0,0-0.1,0-0.1,0
			c-0.1,0-0.2,0-0.3,0.1c0,0,0,0,0,0c-0.2,0.1-0.3,0.1-0.4,0.2c0,0,0,0,0,0l-5.8,3.4c0.1-0.1,0.3-0.2,0.4-0.2c0.1,0,0.2-0.1,0.3-0.1
			c0,0,0.1,0,0.1,0c0.1,0,0.3,0,0.4,0c0,0,0.1,0,0.1,0c0.1,0,0.3,0,0.4,0c0,0,0,0,0,0c0.2,0,0.3,0,0.5,0.1c0,0,0,0,0,0
			c0.2,0,0.3,0.1,0.5,0.1l0,0c0.2,0.1,0.4,0.1,0.6,0.2c0,0,0,0,0,0c0.2,0.1,0.4,0.2,0.6,0.3L262,142.3l5.8-3.4L114.3,50.3z"/>
		<g>
			<linearGradient id="SVGID_3_" gradientUnits="userSpaceOnUse" x1="88.7056" y1="79.9574" x2="281.4454" y2="241.6853">
				<stop  offset="0.1718" style="stop-color:#437FEC"/>
				<stop  offset="0.468" style="stop-color:#336CD5"/>
				<stop  offset="1" style="stop-color:#184EAE"/>
			</linearGradient>
			<path class="st28" d="M262,146.8c1,0.6,1.9,2.1,1.9,3.4l-0.4,112.3c0,1.2-0.9,1.7-1.9,1.1l-153.5-88.6c-1-0.6-1.9-2.1-1.9-3.3
				l0.4-112.3c0-1.2,0.9-1.7,1.9-1.1L262,146.8z"/>
		</g>
		<path class="st0" d="M273.6,148.7c0-0.1,0-0.2,0-0.3c0,0,0-0.1,0-0.1c0,0,0,0,0-0.1c0,0,0-0.1,0-0.1c0-0.1,0-0.2,0-0.3
			c0-0.1,0-0.2,0-0.3v0v0c0-0.1,0-0.2,0-0.3l0,0l0,0l0,0c0-0.1,0-0.2-0.1-0.3c0,0,0-0.1,0-0.1c0,0,0,0,0-0.1c0,0,0-0.1,0-0.1
			c0-0.1,0-0.2-0.1-0.3c0-0.1,0-0.2-0.1-0.2c0,0,0,0,0,0l0,0c0-0.1-0.1-0.2-0.1-0.3c0-0.1-0.1-0.2-0.1-0.3c0,0,0,0,0-0.1l0,0
			c0-0.1-0.1-0.1-0.1-0.2c0-0.1-0.1-0.2-0.1-0.3c0-0.1-0.1-0.1-0.1-0.2c0,0,0,0,0,0l0,0c0-0.1-0.1-0.2-0.1-0.3
			c-0.1-0.1-0.1-0.2-0.2-0.3c0,0,0,0,0-0.1c0,0,0,0,0-0.1c0-0.1-0.1-0.2-0.1-0.2c-0.1-0.1-0.1-0.2-0.2-0.3c0,0-0.1-0.1-0.1-0.1
			c0,0,0,0,0-0.1c-0.1-0.1-0.1-0.2-0.2-0.3c-0.1-0.1-0.2-0.2-0.2-0.4c0,0,0,0,0-0.1c-0.1-0.2-0.2-0.3-0.3-0.5c0,0,0,0,0,0
			c0,0,0,0,0,0c-0.1-0.1-0.2-0.2-0.3-0.3c-0.1-0.1-0.1-0.2-0.2-0.3l0,0l0,0c-0.1-0.1-0.1-0.2-0.2-0.3c-0.1-0.1-0.2-0.2-0.2-0.3
			c0,0,0,0,0,0c0,0,0,0,0,0c-0.1-0.1-0.1-0.1-0.2-0.2c-0.1-0.1-0.2-0.2-0.2-0.2c0,0,0,0-0.1-0.1c0,0,0,0-0.1-0.1
			c0,0-0.1-0.1-0.1-0.1c-0.1-0.1-0.2-0.2-0.3-0.2c0,0-0.1-0.1-0.1-0.1c0,0,0,0-0.1,0c0,0-0.1-0.1-0.1-0.1c-0.1-0.1-0.2-0.1-0.2-0.2
			c-0.1,0-0.1-0.1-0.2-0.1c0,0,0,0,0,0l0,0c-0.1-0.1-0.2-0.1-0.2-0.2c-0.1,0-0.2-0.1-0.2-0.1c0,0,0,0-0.1,0l-5.8,3.3
			c0.2,0.1,0.4,0.2,0.6,0.4l0,0c0.2,0.1,0.4,0.3,0.5,0.4c0,0,0,0,0.1,0.1c0.2,0.1,0.3,0.3,0.5,0.4c0,0,0,0,0,0
			c0.2,0.2,0.3,0.3,0.5,0.5c0,0,0,0,0,0c0.2,0.2,0.3,0.4,0.5,0.6l0,0c0.2,0.2,0.3,0.4,0.5,0.6c0,0,0,0,0,0c0.1,0.2,0.3,0.4,0.4,0.5
			c0.1,0.1,0.2,0.3,0.3,0.4c0.1,0.1,0.1,0.2,0.2,0.3c0,0.1,0.1,0.1,0.1,0.2c0.1,0.2,0.2,0.4,0.3,0.5c0,0,0,0,0,0.1
			c0.1,0.2,0.2,0.4,0.3,0.7c0,0,0,0,0,0c0.1,0.2,0.2,0.4,0.3,0.7c0,0,0,0,0,0.1c0.1,0.2,0.2,0.5,0.2,0.7l0,0
			c0.1,0.2,0.1,0.5,0.2,0.7c0,0,0,0,0,0.1c0.1,0.2,0.1,0.5,0.1,0.7l0,0c0,0.2,0.1,0.5,0.1,0.7c0,0,0,0,0,0c0,0.2,0,0.5,0,0.7
			l-0.4,118.9l5.8-3.4l0.4-118.9C273.6,148.9,273.6,148.8,273.6,148.7z"/>
		<g>
			<path class="st1" d="M101.6,176.4L102,57c0-3,1.6-4.9,4-4.9c0.9,0,1.9,0.3,3,0.9l153.5,88.6c3.4,2,6.2,6.8,6.2,10.7l-0.4,120.3
				L101.6,176.4z M107.7,58.7c-0.3,0-0.3,0.4-0.3,0.6L107,171.5c0,0.9,0.7,2.2,1.5,2.7L262,262.8c0.2,0.1,0.3,0.2,0.5,0.2
				c0.3,0,0.3-0.4,0.3-0.6l0.4-112.3c0-0.9-0.7-2.2-1.5-2.7L108.2,58.8C108,58.7,107.8,58.7,107.7,58.7z"/>
			<path class="st22" d="M262,142.3c3.2,1.9,5.8,6.4,5.8,10l-0.4,118.9L102.3,176L102.7,57c0-3.7,2.6-5.2,5.8-3.3L262,142.3z
				 M263.5,262.4l0.4-112.3c0-1.2-0.9-2.7-1.9-3.4L108.6,58.1c-1-0.6-1.9-0.1-1.9,1.1l-0.4,112.3c0,1.2,0.9,2.7,1.9,3.3l153.5,88.6
				C262.6,264.1,263.5,263.6,263.5,262.4L263.5,262.4z"/>
		</g>
	</g>
	<g>
		<defs>
			<path id="SVGID_4_" d="M262,146.8c1,0.6,1.9,2.1,1.9,3.4l-0.4,112.3c0,1.2-0.9,1.7-1.9,1.1l-153.5-88.6c-1-0.6-1.9-2.1-1.9-3.3
				l0.4-112.3c0-1.2,0.9-1.7,1.9-1.1L262,146.8z"/>
		</defs>
		<clipPath id="SVGID_5_">
			<use xlink:href="#SVGID_4_"  style="overflow:visible;"/>
		</clipPath>
	</g>
</g>
</svg>
