<?xml version="1.0" encoding="utf-8"?>
<!-- Generator: Adobe Illustrator 20.0.0, SVG Export Plug-In . SVG Version: 6.00 Build 0)  -->
<svg version="1.1" id="Layer_1" xmlns="http://www.w3.org/2000/svg" xmlns:xlink="http://www.w3.org/1999/xlink" x="0px" y="0px"
	 viewBox="0 0 163.3 49" style="enable-background:new 0 0 163.3 49;" xml:space="preserve">
<style type="text/css">
	.st0{clip-path:url(#SVGID_2_);fill:#FFFFFF;}
</style>
<g>
	<g>
		<defs>
			<path id="SVGID_1_" d="M76.5,17.1h4.1v23.4h-4.1V17.1z M57.3,24.8c0,10.8-5.2,16.1-15.7,16.1h-0.1C31,40.8,25.7,35.5,25.7,24.8
				S31,8.7,41.5,8.7h0.1C52.1,8.7,57.3,14,57.3,24.8z M52.9,24.7c0-8.5-3.8-12.7-11.3-12.7h-0.1C33.8,12.1,30,16.2,30,24.7
				s3.8,12.8,11.5,12.8h0.1C49.1,37.5,52.9,33.3,52.9,24.7z M64.2,17.1h-2.8v23.4h4.1v-17c1.8-2,4-2.9,6.8-2.9v-3.4
				c-2.9,0-5.3,1-7.4,3L64.2,17.1z M14.5,0H2.9C1.2,0,0,1.3,0,2.9v11.3C0,15.7,1.2,17,2.9,17h11.6c1.6,0,2.9-1.3,2.9-2.9V2.9
				C17.4,1.3,16.1,0,14.5,0z M76.5,12h4.1V8.7h-4.1V12z M162.3,17.1l-0.6,2.1l-0.6-2.1h-1v3.1h0.6v-2.5l0.7,2.5h0.6l0.7-2.5v2.5h0.6
				v-3.1H162.3z M157.2,17.6h0.9v2.6h0.7v-2.6h1v-0.5h-2.5L157.2,17.6L157.2,17.6z M145.1,17.1c-2.9,0-5.7,1-8.6,3l-0.7-3H133v23.4
				h4.1v-17c2.1-2,4.4-2.9,6.7-2.9c3.4,0,5.2,1.7,5.2,5.2v14.7h4.1V25.8C153.2,20,150.5,17.1,145.1,17.1z M96.1,17
				c3.2,0,6.3,0.6,9.2,1.3v22.2c0,5.6-3.5,8.4-10.5,8.5h-0.3c-2.9,0-5.4-0.4-7.7-1.1v-3.4c2.3,0.7,4.9,1.2,7.7,1.2h0.2
				c4.3-0.1,6.4-1.8,6.4-5.2v-1.1c-1.8,0.7-3.7,1.1-5.7,1.1c-0.3,0-0.5,0-0.7,0c-6.9-0.3-10.5-4.2-10.5-11.9
				c0-7.2,3.5-11.1,10.5-11.5C95.2,17,95.7,17,96.1,17z M101.2,21c-1.5-0.4-3.2-0.5-5.3-0.5c-0.4,0-0.7,0-1.1,0
				c-4.3,0.4-6.3,3.1-6.3,8.1c0,5.2,2.1,8,6.3,8.3c0.2,0,0.5,0,0.7,0c2.1,0,4.1-0.4,5.7-1.2C101.2,35.7,101.2,21,101.2,21z
				 M128.9,29.9h-9.8h-6c0,3.9,2,6.3,6,7c1,0.1,2,0.2,3.1,0.2c2.1,0,4.1-0.3,6.2-0.8v3.4c-2.1,0.4-4.6,0.8-7.6,0.8
				c-0.6,0-1.2-0.1-1.8-0.1c-6.8-0.6-10.1-4.6-10.1-12c0-7.3,3.3-11.5,11-11.5C127,17,130.1,22.6,128.9,29.9z M125.2,26.5
				c0.2-4.1-1.7-6.2-5.6-6.2c-0.1,0-0.3,0-0.4,0c-3.8,0.1-5.8,2.2-6,6.2h6H125.2z"/>
		</defs>
		<clipPath id="SVGID_2_">
			<use xlink:href="#SVGID_1_"  style="overflow:visible;"/>
		</clipPath>
		<rect x="-12.4" y="-7.9" class="st0" width="186.7" height="62"/>
	</g>
</g>
</svg>
