<?xml version="1.0" encoding="utf-8"?>
<!-- Generator: Adobe Illustrator 20.0.0, SVG Export Plug-In . SVG Version: 6.00 Build 0)  -->
<svg version="1.1" id="Layer_1" xmlns="http://www.w3.org/2000/svg" xmlns:xlink="http://www.w3.org/1999/xlink" x="0px" y="0px"
	 viewBox="0 0 83.2 82" style="enable-background:new 0 0 83.2 82;" xml:space="preserve">
<style type="text/css">
	.st0{fill:#6D6E70;}
</style>
<g>
	<path class="st0" d="M7.1,56.7c9.5,8.4,21.7,5.9,28.1-1.3c1.8-2.1,3.4-4.8,3.9-7l10.1,2.7c0.4,0.1,0.8,0,1-0.3l5.4-6.2l4.6,4.1
		c0,0,0.2,0.1,0.2,0.1c1.1,0.8,1.7,0.8,2.7-0.3l5.4-6.2l4.6,4.1c0.2,0.2,0.3,0.3,0.4,0.4c0.2,0.2,0.5,0.6,1,0.6
		c0.6,0,0.9-0.4,1.1-0.7c0.1-0.1,0.2-0.3,0.4-0.5l6.2-7c1.1-1.3,1-3.2-0.3-4.3l-6-5.3c-0.5-0.5-1.3-0.8-2-0.8L38,28.8
		c-0.8-1.1-2.1-2.7-3.2-3.6c-8.7-7.6-22-6.8-29.6,1.9S-1.6,49.1,7.1,56.7z M33.5,26.8c0.8,0.7,1.9,2,3.2,3.7
		c0.2,0.3,0.5,0.4,0.8,0.4L74.1,31c0.2,0,0.5,0.1,0.6,0.2l6,5.3c0.4,0.4,0.4,1,0.1,1.4l-6.2,7l-5.4-4.8c-0.4-0.4-1.1-0.3-1.5,0.1
		l-6.1,7l-5.4-4.8c-0.4-0.4-1.1-0.3-1.5,0.1L49.1,49l-10.5-2.8c-0.3-0.1-0.6,0-0.9,0.2c-0.2,0.2-0.4,0.4-0.4,0.7
		c-0.1,1.5-1.5,4.5-3.6,7C28,60.5,17,62.7,8.5,55.2c-7.8-6.9-8.6-18.9-1.7-26.7S25.7,19.9,33.5,26.8z"/>
	<path class="st0" d="M11.3,46.7c3,2.6,7.5,2.3,10.2-0.6c2.6-3,2.3-7.5-0.6-10.2c-3-2.6-7.5-2.3-10.2,0.6S8.3,44.1,11.3,46.7z
		 M19.5,37.4c2.1,1.9,2.3,5.1,0.5,7.3s-5.1,2.3-7.3,0.5c-2.1-1.9-2.3-5.1-0.5-7.3S17.3,35.5,19.5,37.4z"/>
	<path class="st0" d="M37.6,36.1c0.2,0.2,0.4,0.3,0.7,0.3l31,0.1l0-2.1l-31-0.1c-0.6,0-1,0.5-1,1C37.3,35.6,37.4,35.9,37.6,36.1z"/>
</g>
</svg>
