<?xml version="1.0" encoding="utf-8"?>
<!-- Generator: Adobe Illustrator 20.0.0, SVG Export Plug-In . SVG Version: 6.00 Build 0)  -->
<svg version="1.1" id="Layer_1" xmlns="http://www.w3.org/2000/svg" xmlns:xlink="http://www.w3.org/1999/xlink" x="0px" y="0px"
	 viewBox="0 0 83.2 82" style="enable-background:new 0 0 83.2 82;" xml:space="preserve">
<style type="text/css">
	.st0{fill:#6D6E70;}
</style>
<path class="st0" d="M75.7,17.4l-9.8-9.8L63.5,10l-3.4-3.4c-0.5-0.5-1.3-0.5-1.7,0l-20,20c-0.5,0.5-0.5,1.3,0,1.7
	c0.2,0.2,0.6,0.4,0.9,0.4c0.3,0,0.6-0.1,0.9-0.4L59.3,9.3l2.5,2.5L19.4,54.1l2.9,2.9c-1.2-0.6-2.5-0.9-3.8-0.9
	c-2.2,0-4.4,0.8-6.1,2.5c-0.2,0.2-0.3,0.4-0.5,0.5c-0.1,0.1-0.2,0.2-0.2,0.3c-0.1,0.1-0.2,0.2-0.2,0.3c-0.1,0.1-0.1,0.2-0.2,0.3
	c-3.6,5.4-3.7,15.7-3.7,15.7s0.4,0,1,0c3,0,11.6-0.4,16.1-4.9c2.7-2.7,3.2-6.7,1.6-9.9l3,3L75.7,17.4z M22.8,69.1
	c-2.8,2.7-7.6,3.7-11,4l5.6-5.6l-1.7-1.7l-5.4,5.4c0.4-3.3,1.3-7.3,3-9.7l0.1-0.1l0.1-0.1c0.1-0.1,0.1-0.2,0.2-0.3
	c0-0.1,0.1-0.1,0.2-0.2c0.1-0.1,0.2-0.3,0.3-0.4c1.2-1.2,2.7-1.8,4.4-1.8c1.6,0,3.2,0.6,4.4,1.8C25.2,62.7,25.2,66.6,22.8,69.1z
	 M72.2,17.4L57.6,32l-6.3-6.3l14.6-14.6L72.2,17.4z M49.5,27.4l6.3,6.3L29.2,60.4l-6.3-6.3L49.5,27.4z"/>
</svg>
