<svg xmlns="http://www.w3.org/2000/svg" viewBox="0 0 117.07 170.29"><defs><style>.cls-1{fill:#fff;}</style></defs><title>bulb</title><g id="Layer_2" data-name="Layer 2"><g id="Layer_1-2" data-name="Layer 1"><path class="cls-1" d="M58.54,0C30.39,0,0,22.38,0,58.54c0,17.84,7.1,32.85,20.73,44.23a2.6,2.6,0,0,0,.49.47c10.12,11,10.63,13.06,10.7,17.88,0,1.91,0,2.47,0,2.79l0,1.11c-.08,2.41-.2,6.44,4.79,8l43.07,9.48a2.72,2.72,0,0,0,.57.06,2.66,2.66,0,0,0,.57-5.26L38,127.83c-.83-.25-.89-.27-.82-2.65l0-1s.05-.41,0-3.12c-.1-6.75-1.57-10-12.29-21.6a2.69,2.69,0,0,0-.73-.63C11.68,88.16,5.32,74.61,5.32,58.54c0-32.87,27.62-53.21,53.21-53.21,26.16,0,53.21,19.91,53.21,53.21,0,21.17-10.26,32.84-18.72,40.18a2.61,2.61,0,0,0-.78.58C81.41,111,79.94,114.29,79.84,121c0,.16,0,.35,0,.55v.18c0,.4-.07.63-.07.71l-.62-.09-22.33-5.25a2.66,2.66,0,0,0-1.22,5.18l22.05,5.17a6,6,0,0,0,5.18-.6,5.85,5.85,0,0,0,2.31-4.61l0-.25c0-.17,0-.35,0-.52a1.4,1.4,0,0,0,0-.14v-.24c.07-4.8.57-6.89,10.67-17.86l.15-.12c14.2-11.92,21.1-26.51,21.1-44.61C117.07,21.9,87.31,0,58.54,0Z"/><path class="cls-1" d="M79.82,157a2.66,2.66,0,0,0,.59-5.26l-42.57-9.65a2.66,2.66,0,0,0-1.17,5.19l42.57,9.65A2.7,2.7,0,0,0,79.82,157Z"/><path class="cls-1" d="M40.49,157.27a2.66,2.66,0,1,0-1.16,5.19l34.59,7.76A2.66,2.66,0,1,0,75.08,165Z"/></g></g></svg>