<?xml version="1.0" encoding="utf-8"?>
<!-- Generator: Adobe Illustrator 20.0.0, SVG Export Plug-In . SVG Version: 6.00 Build 0)  -->
<svg version="1.1" id="Layer_1" xmlns="http://www.w3.org/2000/svg" xmlns:xlink="http://www.w3.org/1999/xlink" x="0px" y="0px"
	 viewBox="0 0 83.2 82" style="enable-background:new 0 0 83.2 82;" xml:space="preserve">
<style type="text/css">
	.st0{fill:#6D6E70;}
</style>
<path class="st0" d="M80.1,24.1h-59L16.3,4.5H3.1v2.8h11l13.7,56.5c-2.9,0.9-5.1,3.5-5.1,6.7c0,3.9,3.1,7,7,7c3.9,0,7-3.1,7-7
	c0-1.6-0.5-3-1.4-4.2h19.7c-0.9,1.2-1.4,2.6-1.4,4.2c0,3.9,3.1,7,7,7c3.9,0,7-3.1,7-7c0-3.9-3.1-7-7-7l0,0h-30l-1.4-5.6h39.4
	L80.1,24.1z M34,70.5c0,2.3-1.9,4.2-4.2,4.2c-2.3,0-4.2-1.9-4.2-4.2c0-2.3,1.9-4.2,4.2-4.2C32.1,66.3,34,68.2,34,70.5z M64.8,70.5
	c0,2.3-1.9,4.2-4.2,4.2c-2.3,0-4.2-1.9-4.2-4.2c0-2.3,1.9-4.2,4.2-4.2C63,66.3,64.8,68.2,64.8,70.5z M28.6,55L21.8,27h54.4L66.7,55
	H28.6z"/>
</svg>
