<?xml version="1.0" encoding="utf-8"?>
<!-- Generator: Adobe Illustrator 20.0.0, SVG Export Plug-In . SVG Version: 6.00 Build 0)  -->
<svg version="1.1" id="Layer_1" xmlns="http://www.w3.org/2000/svg" xmlns:xlink="http://www.w3.org/1999/xlink" x="0px" y="0px"
	 viewBox="0 0 337.6 194.9" style="enable-background:new 0 0 337.6 194.9;" xml:space="preserve">
<style type="text/css">
	.st0{fill:none;stroke:#FFFFFF;stroke-width:5;}
</style>
<title>cloud</title>
<g id="Layer_2">
	<g id="Layer_1-2">
		<path class="st0" d="M335.1,156.6c0-18-13.3-33.2-31.1-35.5c12.7-26.1,1.9-57.5-24.2-70.2c-14.8-7.2-32.1-7.1-46.8,0.4
			c-25.7-45.8-83.6-62.1-129.3-36.4C77,29.8,59.1,56.7,55.7,87.1h-0.6c-29.1,0.2-52.5,23.9-52.4,53c0.1,26.7,20.2,49,46.7,52
			c0.6,0.2,1.2,0.3,1.8,0.3h248.7c0.2,0,0.5,0,0.7-0.1C319.9,191.7,335.1,175.8,335.1,156.6z"/>
	</g>
</g>
</svg>
