<?xml version="1.0" encoding="utf-8"?>
<!-- Generator: Adobe Illustrator 20.0.0, SVG Export Plug-In . SVG Version: 6.00 Build 0)  -->
<svg version="1.1" id="Layer_1" xmlns="http://www.w3.org/2000/svg" xmlns:xlink="http://www.w3.org/1999/xlink" x="0px" y="0px"
	 viewBox="0 0 83.2 82" style="enable-background:new 0 0 83.2 82;" xml:space="preserve">
<style type="text/css">
	.st0{fill:#6D6E70;}
</style>
<g>
	<path class="st0" d="M71.8,9.3H11.3C8,9.3,5.3,12,5.3,15.3v39.4c0,3.3,2.7,6.1,6.1,6.1h42.5l12,12v-12h6.1c3.3,0,6.1-2.7,6.1-6.1
		V15.3C77.9,12,75.2,9.3,71.8,9.3z M74.9,54.7c0,1.7-1.4,3-3,3h-6.1h-3v3v4.7l-6.8-6.8L55,57.7h-1.3H11.3c-1.7,0-3-1.4-3-3V15.3
		c0-1.7,1.4-3,3-3h60.5c1.7,0,3,1.4,3,3V54.7z"/>
	<circle class="st0" cx="41.6" cy="35" r="3"/>
	<circle class="st0" cx="53.7" cy="35" r="3"/>
	<circle class="st0" cx="29.8" cy="35" r="3"/>
</g>
</svg>
