<?xml version="1.0" encoding="utf-8"?>
<!-- Generator: Adobe Illustrator 20.0.0, SVG Export Plug-In . SVG Version: 6.00 Build 0)  -->
<svg version="1.1" id="Layer_1" xmlns="http://www.w3.org/2000/svg" xmlns:xlink="http://www.w3.org/1999/xlink" x="0px" y="0px"
	 viewBox="0 0 83.2 82" style="enable-background:new 0 0 83.2 82;" xml:space="preserve">
<style type="text/css">
	.st0{fill:none;stroke:#6D6E70;stroke-width:2.5;stroke-miterlimit:10;}
</style>
<g>
	<path class="st0" d="M72.3,31.6l-19.5-4.8c-0.5-0.1-1-0.1-1.4-0.1V11.2c1.1-0.8,1.6-2.2,1.4-3.6c-0.3-2.1-2.3-3.6-4.5-3.3L11.2,10
		c-2.1,0.3-3.6,2.3-3.3,4.5c0.2,1,0.7,1.9,1.4,2.4v58.4c0,1.3,1.1,2.4,2.4,2.4h37.1h22c1.3,0,2.4-1.1,2.4-2.4V38.8
		c0.9-0.5,1.5-1.4,1.8-2.4C75.7,34.2,74.4,32.1,72.3,31.6z M14.2,17.5l32.3-5V32v40.9H34.1V60.7h-7.6v12.2H14.2V17.5z M68.5,72.9
		h-6.3v-6.3h-4.5v6.3h-6.3V35l17.1,3.9V72.9z"/>
	<rect x="26.6" y="19.5" class="st0" width="7.6" height="7.4"/>
	<rect x="26.6" y="32.9" class="st0" width="7.6" height="7.4"/>
	<rect x="26.6" y="46.2" class="st0" width="7.6" height="7.4"/>
	<rect x="57.7" y="41.7" class="st0" width="4.5" height="4.4"/>
	<rect x="57.7" y="49.6" class="st0" width="4.5" height="4.4"/>
	<rect x="57.7" y="57.5" class="st0" width="4.5" height="4.4"/>
</g>
</svg>
