<svg xmlns="http://www.w3.org/2000/svg" viewBox="0 0 189.35 189.35"><defs><style>.cls-1{fill:none;}.cls-1,.cls-2{stroke:#fff;stroke-miterlimit:10;stroke-width:5px;}.cls-2{fill:#fff;}</style></defs><title>fiber_filled</title><g id="Layer_2" data-name="Layer 2"><g id="Layer_1-2" data-name="Layer 1"><path class="cls-1" d="M57.56,89.05a7.18,7.18,0,0,1-7.18,7.18h0a7.18,7.18,0,0,1-7.18-7.18v-28a7.18,7.18,0,0,1,7.18-7.18h0a7.18,7.18,0,0,1,7.18,7.18Z"/><path class="cls-1" d="M146.15,89.05A7.18,7.18,0,0,1,139,96.24h0a7.18,7.18,0,0,1-7.18-7.18v-28A7.18,7.18,0,0,1,139,53.91h0a7.18,7.18,0,0,1,7.18,7.18Z"/><path class="cls-1" d="M116.62,89.05a7.18,7.18,0,0,1-7.18,7.18h0a7.18,7.18,0,0,1-7.18-7.18v-28a7.18,7.18,0,0,1,7.18-7.18h0a7.18,7.18,0,0,1,7.18,7.18Z"/><path class="cls-1" d="M87.09,89.05a7.18,7.18,0,0,1-7.18,7.18h0a7.18,7.18,0,0,1-7.18-7.18v-28a7.18,7.18,0,0,1,7.18-7.18h0a7.18,7.18,0,0,1,7.18,7.18Z"/><path class="cls-2" d="M172.65,2.5H16.7A14.2,14.2,0,0,0,2.5,16.7V172.65a14.2,14.2,0,0,0,14.2,14.2H172.65a14.2,14.2,0,0,0,14.2-14.2V16.7A14.2,14.2,0,0,0,172.65,2.5ZM163,104.94a19.91,19.91,0,0,1-19.91,19.91h-.41a13.89,13.89,0,0,1-13.52,17.26H119a10.53,10.53,0,0,1-10.53,10.53H80.87a10.53,10.53,0,0,1-10.53-10.53H60.21a13.89,13.89,0,0,1-13.52-17.26h-.41a19.91,19.91,0,0,1-19.91-19.91V56.62A19.91,19.91,0,0,1,46.27,36.71h96.8A19.91,19.91,0,0,1,163,56.62Z"/></g></g></svg>