<svg xmlns="http://www.w3.org/2000/svg" viewBox="0 0 189.35 189.35"><defs><style>.cls-1{fill:none;stroke:#fff;stroke-miterlimit:10;stroke-width:5px;}</style></defs><title>fiber</title><g id="Layer_2" data-name="Layer 2"><g id="Layer_1-2" data-name="Layer 1"><rect class="cls-1" x="2.5" y="2.5" width="184.35" height="184.35" rx="14.2" ry="14.2"/><path class="cls-1" d="M143.08,36.71H46.27A19.91,19.91,0,0,0,26.36,56.62v48.32a19.91,19.91,0,0,0,19.91,19.91h.41a13.89,13.89,0,0,0,13.52,17.26H70.34a10.53,10.53,0,0,0,10.53,10.53h27.61A10.53,10.53,0,0,0,119,142.11h10.13a13.89,13.89,0,0,0,13.52-17.26h.41A19.91,19.91,0,0,0,163,104.94V56.62A19.91,19.91,0,0,0,143.08,36.71Z"/><path class="cls-1" d="M57.56,89.05a7.18,7.18,0,0,1-7.18,7.18h0a7.18,7.18,0,0,1-7.18-7.18v-28a7.18,7.18,0,0,1,7.18-7.18h0a7.18,7.18,0,0,1,7.18,7.18Z"/><path class="cls-1" d="M146.15,89.05A7.18,7.18,0,0,1,139,96.24h0a7.18,7.18,0,0,1-7.18-7.18v-28A7.18,7.18,0,0,1,139,53.91h0a7.18,7.18,0,0,1,7.18,7.18Z"/><path class="cls-1" d="M116.62,89.05a7.18,7.18,0,0,1-7.18,7.18h0a7.18,7.18,0,0,1-7.18-7.18v-28a7.18,7.18,0,0,1,7.18-7.18h0a7.18,7.18,0,0,1,7.18,7.18Z"/><path class="cls-1" d="M87.09,89.05a7.18,7.18,0,0,1-7.18,7.18h0a7.18,7.18,0,0,1-7.18-7.18v-28a7.18,7.18,0,0,1,7.18-7.18h0a7.18,7.18,0,0,1,7.18,7.18Z"/></g></g></svg>