<?xml version="1.0" encoding="utf-8"?>
<!-- Generator: Adobe Illustrator 20.0.0, SVG Export Plug-In . SVG Version: 6.00 Build 0)  -->
<svg version="1.1" id="Layer_1" xmlns="http://www.w3.org/2000/svg" xmlns:xlink="http://www.w3.org/1999/xlink" x="0px" y="0px"
	 viewBox="0 0 83.2 82" style="enable-background:new 0 0 83.2 82;" xml:space="preserve">
<style type="text/css">
	.st0{fill:none;stroke:#6D6E70;stroke-width:2;}
</style>
<path class="st0" d="M41.6,5.9C22.2,5.9,6.4,21.6,6.4,41s15.8,35.1,35.1,35.1S76.7,60.4,76.7,41S61,5.9,41.6,5.9z M41.6,71.1
	c-8.8,0-16.8-3.8-22.3-9.9c0.2-0.7,1.7-5,2.7-7c1.1-2.2,1.4-2.4,3.9-4.6c2.4-2.2-4.8-3.1-6.5-4.8c-1.7-1.7-2.5-1.7-4.5-3.2
	c-1.4-1.1-2.3,3.9-2.6,6.5c-0.6-2.3-0.9-4.7-0.9-7.2c0-6.4,2-12.3,5.4-17.2c-1,3-1.8,7.3,1.9,6c4.1-1.4,4.5-3.1,4.5-3.1l2.4-4.2
	c0,0,0.4,5.9,0.8,6.7c0.5,0.8,2.4,3.3,3.1-0.1c1.3-6.2,1.6-8,3.8-8c2.3,0,7-1.8,7.5,3.7c0.5,5.5-0.5,2.3-3.5,3.7
	c-3,1.4-3.7,6.5-1,7.1c2.8,0.6,9,3.1,9,3.1l3.1,3.5l1,3.7c0,0,0.6,4.2,0.6,4.6c0,0.4,0,3.9,0,3.9s0.1,7.6,2.9,5.8
	c2.8-1.8,10.4-13.6,8.8-18.1c-1.6-4.5-1.7-4.9,1.2-6.5c2.9-1.6,4.9-3.5,4.8-5.7c-0.1-1.5,0.1-2.4,0.1-3.4c2.3,4.3,3.7,9.2,3.7,14.4
	C71.7,57.6,58.2,71.1,41.6,71.1z"/>
</svg>
