<?xml version="1.0" encoding="utf-8"?>
<!-- Generator: Adobe Illustrator 20.0.0, SVG Export Plug-In . SVG Version: 6.00 Build 0)  -->
<svg version="1.1" id="Layer_1" xmlns="http://www.w3.org/2000/svg" xmlns:xlink="http://www.w3.org/1999/xlink" x="0px" y="0px"
	 viewBox="0 0 83.2 82" style="enable-background:new 0 0 83.2 82;" xml:space="preserve">
<style type="text/css">
	.st0{fill:#6D6E70;}
</style>
<g>
	<path class="st0" d="M76.4,14.9H6.7c-2.4,0-4.4,2-4.4,4.4v4.4v11.6v27.6c0,2.4,2,4.4,4.4,4.4h69.7c2.4,0,4.4-1.9,4.4-4.4V35.2V23.6
		v-4.4C80.8,16.8,78.8,14.9,76.4,14.9z M5.3,26.5h72.6v5.8H5.3V26.5z M77.9,62.8c0,0.8-0.7,1.5-1.5,1.5H6.7c-0.8,0-1.5-0.7-1.5-1.5
		V35.2h72.6V62.8z M5.3,23.6v-4.4c0-0.8,0.7-1.5,1.5-1.5h69.7c0.8,0,1.5,0.7,1.5,1.5v4.4H5.3z"/>
	<rect x="11.1" y="55.5" class="st0" width="29" height="2.9"/>
	<rect x="11.1" y="46.8" class="st0" width="17.4" height="2.9"/>
	<path class="st0" d="M63.3,58.4h5.9c1.6,0,2.9-1.3,2.9-2.8v-0.2c0-1.6-1.3-2.8-2.9-2.8h-5.9c-1.6,0-2.9,1.3-2.9,2.8v0.2
		C60.4,57.2,61.7,58.4,63.3,58.4z"/>
</g>
</svg>
