<?xml version="1.0" encoding="utf-8"?>
<!-- Generator: Adobe Illustrator 20.0.0, SVG Export Plug-In . SVG Version: 6.00 Build 0)  -->
<svg version="1.1" id="Layer_1" xmlns="http://www.w3.org/2000/svg" xmlns:xlink="http://www.w3.org/1999/xlink" x="0px" y="0px"
	 viewBox="0 0 83.2 82" style="enable-background:new 0 0 83.2 82;" xml:space="preserve">
<style type="text/css">
	.st0{fill:none;stroke:#6D6E70;stroke-width:3;stroke-miterlimit:10;}
</style>
<g>
	<path class="st0" d="M65.5,54.9H17.5V37.5c-1.5,1.3-3.3,2.1-5.4,2.4v32.8c0,1.5,1.2,2.7,2.7,2.7h53.4c1.5,0,2.7-1.2,2.7-2.7V39.9
		c-2-0.3-3.9-1.2-5.4-2.5V54.9z"/>
	<path class="st0" d="M69.8,12.1c0.4,0,0.7,0.1,1.1,0.2v-3c0-1.5-1.2-2.7-2.7-2.7H14.8c-1.5,0-2.7,1.2-2.7,2.7v3
		c0.4-0.2,0.8-0.2,1.2-0.2H69.8z"/>
	<path class="st0" d="M69.8,15.4h-4.3H17.5h-4.1L2.6,26.9c0,4.3,3.5,7.8,7.8,7.8c0.9,0,1.7-0.2,2.5-0.4c0,0,0.1,0,0.1,0
		c0.2-0.1,0.5-0.2,0.7-0.3c0,0,0.1,0,0.1,0c0.2-0.1,0.5-0.3,0.7-0.4c0,0,0,0,0,0c1-0.6,1.8-1.5,2.4-2.5c0,0,0,0,0,0
		c0.2-0.2,0.3-0.5,0.4-0.8l0,0c0.5-1,0.7-2.1,0.7-3.3c0,4.3,3.5,7.8,7.8,7.8c4.3,0,7.8-3.5,7.8-7.8c0,4.3,3.5,7.8,7.8,7.8
		c4.3,0,7.8-3.5,7.8-7.8c0,4.3,3.5,7.8,7.8,7.8c4.3,0,7.8-3.5,7.8-7.8c0,1.4,0.4,2.7,1,3.8c0,0.1,0.1,0.1,0.1,0.2
		c0.1,0.2,0.2,0.4,0.4,0.6c0,0.1,0.1,0.1,0.1,0.2c0.1,0.2,0.3,0.3,0.4,0.5c0,0,0.1,0.1,0.1,0.1c0.2,0.2,0.4,0.4,0.6,0.5c0,0,0,0,0,0
		c0.7,0.6,1.5,1,2.3,1.4c0,0,0,0,0,0c0.3,0.1,0.6,0.2,0.9,0.3h0c0.6,0.1,1.2,0.2,1.8,0.2c4.3,0,7.8-3.5,7.8-7.8L69.8,15.4z"/>
</g>
</svg>
