<svg xmlns="http://www.w3.org/2000/svg" viewBox="0 0 222.36 169.42"><defs><style>.cls-1{fill:#fff;}</style></defs><title>support</title><g id="Layer_2" data-name="Layer 2"><g id="Layer_1-2" data-name="Layer 1"><path class="cls-1" d="M219.71,90a2.65,2.65,0,0,0-2.65,2.65v68.83a2.65,2.65,0,0,1-2.65,2.65H7.94a2.65,2.65,0,0,1-2.65-2.65V92.65a2.65,2.65,0,1,0-5.29,0v68.83a8,8,0,0,0,7.94,7.94H214.42a8,8,0,0,0,7.94-7.94V92.65A2.65,2.65,0,0,0,219.71,90Z"/><path class="cls-1" d="M214.42,37.06H7.94A8,8,0,0,0,0,45V76.77a2.65,2.65,0,0,0,2.65,2.65H74.12V97.94a8,8,0,0,0,7.94,7.94H140.3a8,8,0,0,0,7.94-7.94V79.41h71.47a2.65,2.65,0,0,0,2.65-2.65V45A8,8,0,0,0,214.42,37.06ZM142.95,97.94a2.65,2.65,0,0,1-2.65,2.65H82.06a2.65,2.65,0,0,1-2.65-2.65V79.41h63.53Zm74.12-23.82H5.29V45a2.65,2.65,0,0,1,2.65-2.65H214.42A2.65,2.65,0,0,1,217.07,45Z"/><path class="cls-1" d="M82.06,0a8,8,0,0,0-7.94,7.94V29.12a2.65,2.65,0,1,0,5.29,0V7.94a2.65,2.65,0,0,1,2.65-2.65H140.3a2.65,2.65,0,0,1,2.65,2.65V29.12a2.65,2.65,0,1,0,5.29,0V7.94A8,8,0,0,0,140.3,0Z"/></g></g></svg>