<svg xmlns="http://www.w3.org/2000/svg" viewBox="0 0 182.6 168.99"><defs><style>.cls-1{fill:#fff;}</style></defs><title>telescope</title><g id="Layer_2" data-name="Layer 2"><g id="Layer_1-2" data-name="Layer 1"><path class="cls-1" d="M142.81,12.22a2.64,2.64,0,0,0-3.68-1.36L76.25,44A2.64,2.64,0,0,0,75,47.32l1.29,3.38L40,70.61a2.64,2.64,0,0,0-1.17,3.33l1.2,2.9L1.5,95.26A2.64,2.64,0,0,0,.2,98.65l7.91,19.07a2.64,2.64,0,0,0,3.32,1.48L51.7,104.93l1.2,2.9a2.64,2.64,0,0,0,2.44,1.63,2.67,2.67,0,0,0,.73-.1L94.5,98.28l1.15,3a2.64,2.64,0,0,0,2.47,1.7,2.6,2.6,0,0,0,.78-.12l68.65-21.12a2.64,2.64,0,0,0,1.68-3.5ZM12,113.38,6,98.94l36-17.22L49.67,100Zm44.84-9.75-1.26-3h0L45.88,77.13h0l-1.25-3L78.09,55.75,90.62,88.14l2,5.18Zm42.82-6.54-1.07-2.8c0-.06,0-.12,0-.18l-3.26-8.43L80.78,47.62,139,16.91l24.25,60.63Z"/><path class="cls-1" d="M150.73,1.66a2.64,2.64,0,1,0-4.9,2l31.69,79.21A2.64,2.64,0,0,0,180,84.5a2.61,2.61,0,0,0,1-.19,2.64,2.64,0,0,0,1.47-3.43Z"/><path class="cls-1" d="M92.83,110.9H77a10.33,10.33,0,0,0-10.56,10.56v6.95l-31,36.22a2.64,2.64,0,1,0,4,3.43l30.89-36h12v34.33a2.64,2.64,0,1,0,5.28,0V132h12l30.89,36a2.64,2.64,0,1,0,4-3.43l-31-36.22v-6.55A10.65,10.65,0,0,0,92.83,110.9Zm5.28,15.84H71.71v-5.28A5.05,5.05,0,0,1,77,116.18H92.83a5.37,5.37,0,0,1,5.28,5.68Z"/></g></g></svg>