<?xml version="1.0" encoding="utf-8"?>
<!-- Generator: Adobe Illustrator 20.0.0, SVG Export Plug-In . SVG Version: 6.00 Build 0)  -->
<svg version="1.1" id="Layer_1" xmlns="http://www.w3.org/2000/svg" xmlns:xlink="http://www.w3.org/1999/xlink" x="0px" y="0px"
	 viewBox="0 0 193.5 195.8" style="enable-background:new 0 0 193.5 195.8;" xml:space="preserve">
<style type="text/css">
	.st0{fill:none;stroke:#FFFFFF;stroke-width:5;}
</style>
<title>voip</title>
<g id="Layer_2">
	<g id="Layer_1-2">
		<path class="st0" d="M156.8,193.2c-16.8,1.5-59.6-16.5-98-59.7C22.8,93.1,4.5,63.3,2.6,42.3C1.2,25.7,11.9,16.8,17.7,12l1.4-1.2
			c6.4-5.4,16.8-7.9,20.8-8.3C47,1.9,50.3,5.8,52.5,9.3c1.8,2.9,16.9,29.1,18.5,32.4c2.4,5,2.4,12.7-3.3,17.6l-1,0.8
			c-2.8,2.4-8.2,6.8-8.5,11.6c-0.2,2.3,0.8,4.7,3,7.2c11,12.4,45.9,48.7,52,53.4c4.8,3.8,10.5,3.9,14,0.3c1.9-1.8,3.6-3.8,5.3-5.8
			l0.4-0.4c2.3-2,5.2-3.3,8.3-3.5c4-0.2,8,0.7,11.4,2.8c10.1,5.6,32.9,18.1,32.9,18.1l0.4,0.2c3,2.1,7.5,8.6,3.7,17.8
			C185.5,171.5,172.3,191.8,156.8,193.2z"/>
		<path class="st0" d="M144.1,80.4c0-20.7-16.8-37.5-37.4-37.5c0,0,0,0,0,0"/>
		<path class="st0" d="M174,80.4c0-37.2-30.1-67.3-67.3-67.4c0,0-0.1,0-0.1,0"/>
	</g>
</g>
</svg>
