<svg xmlns="http://www.w3.org/2000/svg" viewBox="0 0 193.49 195.75"><defs><style>.cls-1{fill:none;stroke:#1f9df3;stroke-width:5px;}</style></defs><title>voip</title><g id="Layer_2" data-name="Layer 2"><g id="Layer_1-2" data-name="Layer 1"><path class="cls-1" d="M156.81,193.17c-16.83,1.48-59.64-16.46-98-59.65C22.84,93.12,4.48,63.27,2.63,42.26,1.18,25.72,11.91,16.82,17.68,12l1.42-1.19c6.36-5.44,16.76-7.94,20.8-8.29C47,1.94,50.34,5.83,52.47,9.29,54.27,12.21,69.4,38.43,71,41.72c2.44,5.05,2.45,12.73-3.28,17.64l-1,.84c-2.85,2.37-8.16,6.78-8.53,11.61-.18,2.35.81,4.7,3,7.19,11,12.41,45.91,48.65,52,53.44,4.81,3.76,10.49,3.86,14,.29a61.41,61.41,0,0,0,5.28-5.85l.37-.43a13.82,13.82,0,0,1,8.26-3.49,19.8,19.8,0,0,1,11.38,2.78c10.11,5.61,32.9,18.12,32.9,18.12l.37.23c3,2.12,7.54,8.57,3.67,17.83C185.51,171.54,172.25,191.81,156.81,193.17Z"/><path class="cls-1" d="M144.08,80.37A37.47,37.47,0,0,0,106.6,42.88"/><path class="cls-1" d="M174,80.37A67.32,67.32,0,0,0,106.6,13"/></g></g></svg>