<svg xmlns="http://www.w3.org/2000/svg" viewBox="0 0 200.09 168.5"><defs><style>.cls-1{fill:#fff;}</style></defs><title>wallet</title><g id="Layer_2" data-name="Layer 2"><g id="Layer_1-2" data-name="Layer 1"><path class="cls-1" d="M171.18,39.49a2.63,2.63,0,0,0,2.63-2.63V28.09a8.63,8.63,0,0,0-8.62-8.62H151l-3.23-9.53a2.63,2.63,0,0,0-3.26-1.68L67.92,31.57a2.63,2.63,0,0,0,1.53,5L143.65,14l7.07,20.88a2.63,2.63,0,1,0,5-1.69l-2.88-8.51h12.37a3.36,3.36,0,0,1,3.36,3.36v8.77A2.63,2.63,0,0,0,171.18,39.49Z"/><path class="cls-1" d="M192.2,79a2.63,2.63,0,1,0,0,5.27c1.85,0,2.63.79,2.63,2.63v31.59c0,1.85-.79,2.63-2.63,2.63H150.07c-1.85,0-2.63-.79-2.63-2.63V92.15c0-1.85.79-2.63,2.63-2.63h31.59a2.63,2.63,0,0,0,2.63-2.63V55.29c0-4.8-3.1-7.9-7.9-7.9H15.8c-6.49,0-10.53-4-10.53-10.53s4-10.53,10.53-10.53H42.53L26.59,31.58a2.63,2.63,0,0,0,.83,5.13,2.66,2.66,0,0,0,.83-.13L123.65,5.14a2.63,2.63,0,1,0-1.65-5l-63.72,21a2.47,2.47,0,0,0-.36-.07H15.8C6.35,21.07,0,27.41,0,36.86V152.71c0,9.45,6.35,15.8,15.8,15.8H176.4c4.8,0,7.9-3.1,7.9-7.9V134.28a2.63,2.63,0,0,0-5.27,0V160.6c0,1.85-.79,2.63-2.63,2.63H15.8c-6.49,0-10.53-4-10.53-10.53V49A16,16,0,0,0,15.8,52.66H176.4c1.85,0,2.63.79,2.63,2.63v29h-29c-4.8,0-7.9,3.1-7.9,7.9v26.33c0,4.8,3.1,7.9,7.9,7.9H192.2c4.8,0,7.9-3.1,7.9-7.9V86.89C200.09,82.09,197,79,192.2,79Z"/><circle class="cls-1" cx="168.5" cy="105.32" r="5.27"/></g></g></svg>