<?xml version="1.0" encoding="utf-8"?>
<!-- Generator: Adobe Illustrator 23.0.1, SVG Export Plug-In . SVG Version: 6.00 Build 0)  -->
<svg version="1.1" id="Layer_1" xmlns="http://www.w3.org/2000/svg" xmlns:xlink="http://www.w3.org/1999/xlink" x="0px" y="0px"
	 viewBox="0 0 45.8 41" style="enable-background:new 0 0 45.8 41;">
<style type="text/css">
	.checkbox_st0{fill:none;stroke:#000000;stroke-width:3;stroke-miterlimit:10;}
</style>
<g>
	<g id="Layer_1-2">
		<path class="fill" d="M22.6,28l-8.7-8.7c-0.4-0.4-0.4-1,0-1.4l2.2-2.2c0.4-0.4,1-0.4,1.4,0l5.6,5.6L41.3,1.4c0.4-0.4,1-0.4,1.4-0.1L45,3.5
			c0.4,0.4,0.4,1,0.1,1.4L24,28C23.7,28.4,23,28.4,22.6,28z"/>
		<path class="checkbox_st0 stroke" d="M38.6,17.3v15.9c0,1.6-1.3,2.9-2.9,2.9H10.2c-1.6,0-2.9-1.3-2.9-2.9V7.8c0-1.6,1.3-2.9,2.9-2.9h20.7"/>
	</g>
</g>
</svg>
