<?xml version="1.0" encoding="utf-8"?>
<!-- Generator: Adobe Illustrator 23.0.1, SVG Export Plug-In . SVG Version: 6.00 Build 0)  -->
<svg version="1.1" id="Layer_1" xmlns="http://www.w3.org/2000/svg" xmlns:xlink="http://www.w3.org/1999/xlink" x="0px" y="0px"
	 viewBox="0 0 64.5 64" style="enable-background:new 0 0 64.5 64;" xml:space="preserve">
<style type="text/css">
	.st0{fill:#FFFFFF;}
</style>
<g id="uptime" transform="translate(0 -0.008)">
	<path id="Shape-3" class="st0" d="M40,64H16c-1.1,0-2-0.9-2-2s0.9-2,2-2h5v-9H2c-1.1,0-2-0.9-2-2V12c0-1.1,0.9-2,2-2h22
		c1.1,0,2,0.9,2,2s-0.9,2-2,2H4v24h50c1.1,0,2,0.9,2,2v9c0,1.1-0.9,2-2,2H35v9h5c1.1,0,2,0.9,2,2S41.1,64,40,64z M25,51v9h6v-9H25z
		 M4,42v5h48v-5H4z"/>
	<path id="Shape-4" class="st0" d="M13,33c0.5,0,1-0.2,1.4-0.6l9-9c0.8-0.8,0.8-2,0-2.8s-2-0.8-2.8,0l-9,9c-0.8,0.8-0.8,2,0,2.8
		C11.9,32.8,12.5,33,13,33z"/>
	<path id="Shape-5" class="st0" d="M16.4,16.6c-0.8-0.8-2-0.8-2.8,0c0,0,0,0,0,0l-5,5c-0.8,0.8-0.8,2,0,2.8c0.8,0.8,2,0.8,2.8,0l5-5
		C17.2,18.6,17.2,17.4,16.4,16.6C16.4,16.6,16.4,16.6,16.4,16.6z"/>
	<path class="st0" d="M54.2,14.7v-3.4c0-1.9-1.5-3.4-3.4-3.4H37c-1.9,0-3.4,1.5-3.4,3.4v13.8c0,1.9,1.5,3.4,3.4,3.4h13.8
		c1.9,0,3.4-1.5,3.4-3.4v-3.4l10.3,3.4V11.3L54.2,14.7z"/>
</g>
</svg>
