<?xml version="1.0" encoding="utf-8"?>
<!-- Generator: Adobe Illustrator 23.0.1, SVG Export Plug-In . SVG Version: 6.00 Build 0)  -->
<svg version="1.1" id="Layer_1" xmlns="http://www.w3.org/2000/svg" xmlns:xlink="http://www.w3.org/1999/xlink" x="0px" y="0px"
	 viewBox="0 0 184 165.7" style="enable-background:new 0 0 184 165.7;">
<style type="text/css">
	.conf_st0{fill:none;stroke:#FFFFFF;stroke-width:10;stroke-miterlimit:10;}
	.conf_st1{fill:none;stroke:#FFFFFF;stroke-width:8;stroke-miterlimit:10;}
	.conf_st2{fill:#FFFFFF;}
</style>
<title>Asset 4</title>
<g>
	<g id="Layer_1-2">
		<path class="conf_st0 stroke" d="M102.3,16.9h67.7c3.5,0,6.3,2.8,6.3,6.3v102.4c0,3.5-2.8,6.3-6.3,6.3H14.6c-3.5,0-6.3-2.8-6.3-6.3V23.2
			c0-3.5,2.8-6.3,6.3-6.3h67.7"/>
		<line class="conf_st1 stroke" x1="8.3" y1="115.9" x2="176.3" y2="115.9"/>
		<path class="conf_st0 stroke" d="M92,38L92,38c12.2,0,22,9.9,22,22l0,0c0,12.2-9.9,22-22,22h0c-12.2,0-22-9.9-22-22l0,0C70,47.9,79.8,38,92,38
			z"/>
		<path class="conf_st0 stroke" d="M92,7.3L92,7.3c5.3,0,9.6,4.3,9.6,9.6l0,0c0,5.3-4.3,9.6-9.6,9.6l0,0c-5.3,0-9.6-4.3-9.6-9.6l0,0
			C82.3,11.6,86.7,7.3,92,7.3z"/>
		<path class="conf_st2 fill" d="M92,14.5L92,14.5c1.5,0,2.7,1.2,2.7,2.7l0,0c0,1.5-1.2,2.7-2.7,2.7l0,0c-1.5,0-2.7-1.2-2.7-2.7l0,0
			C89.3,15.7,90.5,14.5,92,14.5z"/>
		<path class="conf_st0 stroke" d="M52.2,117.5C59.6,99.3,74.7,86.8,92,86.8l0,0c17.3,0,32.3,12.4,39.7,30.6"/>
		<path class="conf_st2 fill" d="M163.6,24.9h0.5c1.8,0,3.3,1.5,3.3,3.3v0.5c0,1.8-1.5,3.3-3.3,3.3h-0.5c-1.8,0-3.3-1.5-3.3-3.3v-0.5
			C160.3,26.4,161.8,24.9,163.6,24.9z"/>
		<rect x="132.3" y="24.9" class="conf_st2 fill" width="25" height="7"/>
		<polyline class="conf_st0 stroke" points="79.3,159.9 79.3,132.9 105.3,132.9 105.3,159.9 		"/>
	</g>
	<path class="conf_st1 stroke" d="M129.8,161.6H53.9c-0.3,0-0.6-0.3-0.6-0.6l0,0c0-0.3,0.3-0.6,0.6-0.6h75.9c0.3,0,0.6,0.3,0.6,0.6l0,0
		C130.4,161.3,130.1,161.6,129.8,161.6z"/>
</g>
</svg>
