<svg xmlns="http://www.w3.org/2000/svg" viewBox="0 0 60 61">
  <defs>
    <style>
      .cls-1 {
        fill: #fff;
      }
    </style>
  </defs>
  <g id="dreamteam" transform="translate(0)">
    <path id="Shape" class="cls-1" d="M29.69,61a6.894,6.894,0,0,1-4.879-2.007H11.539a7.588,7.588,0,0,1-7.433-6.07l-2.1-10.379a2.117,2.117,0,0,1,0-.37A13.887,13.887,0,0,1,.007,35v-.671a1.825,1.825,0,0,1,0-.329A34.918,34.918,0,0,1,2.28,21.936,38.693,38.693,0,0,1,8.566,11a31.85,31.85,0,0,1,9.506-7.937,24.766,24.766,0,0,1,23.856,0A31.858,31.858,0,0,1,51.434,11a38.693,38.693,0,0,1,6.286,10.937A34.918,34.918,0,0,1,59.993,34a2.005,2.005,0,0,1,0,.329V35a14,14,0,0,1-14,14,2,2,0,0,1-2-2V23a2,2,0,0,1,2-2,13.832,13.832,0,0,1,8,2.55C50.422,13.818,41.618,4,30,4S9.578,13.818,6.006,23.548A13.831,13.831,0,0,1,14,21a2,2,0,0,1,2,2v24a2,2,0,0,1-2,2,13.921,13.921,0,0,1-6.939-1.859l1,5a3.592,3.592,0,0,0,3.5,2.859H24.811a6.9,6.9,0,0,1,4.882-2.007c.1,0,.2,0,.307.007,3.308,0,6,1.794,6,4s-2.691,4-6,4C29.891,61,29.787,61,29.69,61ZM48,25.2v19.6a10,10,0,0,0,0-19.6ZM12,25.2a10,10,0,0,0,0,19.6Z"/>
  </g>
</svg>
