<svg id="google" xmlns="http://www.w3.org/2000/svg" viewBox="0 0 32 32">
  <defs>
    <style>
      .cls-1, .cls-4 {
        fill: none;
      }

      .cls-1 {
        stroke: #303030;
        stroke-miterlimit: 10;
      }

      .cls-2 {
        fill: #a0a0a0;
      }

      .cls-3 {
        stroke: none;
      }
    </style>
  </defs>
  <g id="Rectangle" class="cls-1">
    <rect class="cls-3" width="32" height="32" rx="4"/>
    <rect class="cls-4" x="0.5" y="0.5" width="31" height="31" rx="3.5"/>
  </g>
  <path id="Shape" class="cls-2" d="M4.721,15C1.985,15,0,13.853,0,12.273A3.014,3.014,0,0,1,1.306,9.96,5.3,5.3,0,0,1,4.532,8.926c.127,0,.257,0,.409,0h.01c.128,0,.253,0,.38,0A1.783,1.783,0,0,1,4.7,7.634a1.9,1.9,0,0,1,.235-.867c-.153.012-.309.013-.428.013A3.332,3.332,0,0,1,1,3.406,3.187,3.187,0,0,1,2.229,1.017,4.407,4.407,0,0,1,5.009,0H9.621L8.589.752H7.127A2.743,2.743,0,0,1,8.613,3.435a3.115,3.115,0,0,1-1.3,2.426c-.762.6-.884.845-.884,1.328,0,.437.817,1.162,1.212,1.445a3.243,3.243,0,0,1,1.613,3.019,3.009,3.009,0,0,1-1.171,2.3A5.241,5.241,0,0,1,4.721,15Zm.254-5.643a4.024,4.024,0,0,0-2.312.714,2.14,2.14,0,0,0-1,1.7c0,1.393,1.339,2.485,3.049,2.485,2.773,0,3.355-1.314,3.355-2.416a2.074,2.074,0,0,0-.058-.48c-.169-.667-.721-1.047-1.485-1.572-.117-.08-.236-.162-.359-.248a3.838,3.838,0,0,0-1.147-.185Zm-.59-8.7a1.556,1.556,0,0,0-1.2.551A2.767,2.767,0,0,0,2.655,3.4C2.86,4.965,3.991,6.27,5.177,6.306h.051a1.54,1.54,0,0,0,1.183-.55,2.821,2.821,0,0,0,.545-2.231C6.755,1.98,5.624.693,4.434.657Zm8.169,9.051H11.108V7.9H9.314V6.443h1.794V4.636h1.445V6.443h1.795V7.9H12.553V9.706Z" transform="translate(9 9)"/>
</svg>
