<svg id="insta" xmlns="http://www.w3.org/2000/svg" viewBox="0 0 32 32">
  <defs>
    <style>
      .cls-1, .cls-4 {
        fill: none;
      }

      .cls-1 {
        stroke: #303030;
        stroke-miterlimit: 10;
      }

      .cls-2 {
        fill: #a0a0a0;
      }

      .cls-3 {
        stroke: none;
      }
    </style>
  </defs>
  <g id="Rectangle" class="cls-1">
    <rect class="cls-3" width="32" height="32" rx="4"/>
    <rect class="cls-4" x="0.5" y="0.5" width="31" height="31" rx="3.5"/>
  </g>
  <path id="Shape" class="cls-2" d="M11.294,14H2.705A2.709,2.709,0,0,1,0,11.294V2.705A2.708,2.708,0,0,1,2.705,0h8.589A2.709,2.709,0,0,1,14,2.705v8.589A2.709,2.709,0,0,1,11.294,14ZM1.364,5.563v5.731a1.343,1.343,0,0,0,1.342,1.342h8.589a1.343,1.343,0,0,0,1.342-1.342V5.563h-2.09A3.827,3.827,0,1,1,3.173,7a3.78,3.78,0,0,1,.283-1.437ZM7,4.535A2.473,2.473,0,0,0,5,5.563a2.464,2.464,0,1,0,4,0A2.473,2.473,0,0,0,7,4.535Zm5.38-2.922-.31,0-2.065.005.008,2.373,2.366-.007Z" transform="translate(9 9)"/>
</svg>
