<svg xmlns="http://www.w3.org/2000/svg" viewBox="0 0 58 61.488">
  <defs>
    <style>
      .cls-1 {
        fill: #fff;
      }
    </style>
  </defs>
  <g id="ip6" transform="translate(0 -0.501)">
    <path id="Shape" class="cls-1" d="M29.065,61.488a7,7,0,0,1-6.7-4.99H2a2,2,0,1,1,0-4H22.36A6.986,6.986,0,0,1,27,47.809V35.888a18,18,0,1,1,4,0v11.89A6.972,6.972,0,0,1,35.77,52.5H56a2,2,0,1,1,0,4H35.77a7,7,0,0,1-6.7,4.99Zm0-9.989a3,3,0,1,0,3,3A3,3,0,0,0,29.06,51.5Zm0-47.5a14,14,0,1,0,14,14A14.016,14.016,0,0,0,29.06,4Z" transform="translate(0 0.501)"/>
    <path id="Shape-2" data-name="Shape" class="cls-1" d="M9.13,14.566,17.62,3.2A2,2,0,0,0,14.41.806L7.33,10.3l-3.84-4A2.03,2.03,0,1,0,.57,9.116l5.52,5.64a2,2,0,0,0,1.44.61h.13A2,2,0,0,0,9.13,14.566Z" transform="translate(20.43 10.244)"/>
  </g>
</svg>
