<svg id="layer_2" data-name="layer 2" xmlns="http://www.w3.org/2000/svg" viewBox="0 0 48 56">
  <defs>
    <style>
      .cls-1 {
        fill: #fff;
      }
    </style>
  </defs>
  <path id="Shape" class="cls-1" d="M2,10A2,2,0,0,0,4,8V7A3,3,0,0,1,7,4H25a3,3,0,0,1,3,3V37a3,3,0,0,1-3,3H7a3,3,0,0,1-3-3V20a2,2,0,0,0-4,0V37a7,7,0,0,0,7,7H25a7,7,0,0,0,7-7V7a7,7,0,0,0-7-7H7A7,7,0,0,0,0,7V8a2,2,0,0,0,2,2Z" transform="translate(16)"/>
  <path id="Shape-2" data-name="Shape" class="cls-1" d="M7,44H25a7,7,0,0,0,7-7V36a2,2,0,0,0-4,0v1a3,3,0,0,1-3,3H7a3,3,0,0,1-3-3V7A3,3,0,0,1,7,4H25a3,3,0,0,1,3,3V24a2,2,0,0,0,4,0V7a7,7,0,0,0-7-7H7A7,7,0,0,0,0,7V37A7,7,0,0,0,7,44Z" transform="translate(0 12)"/>
</svg>
