<svg id="linkedin" xmlns="http://www.w3.org/2000/svg" viewBox="0 0 32 32">
  <defs>
    <style>
      .cls-1, .cls-4 {
        fill: none;
      }

      .cls-1 {
        stroke: #303030;
        stroke-miterlimit: 10;
      }

      .cls-2 {
        fill: #a0a0a0;
      }

      .cls-3 {
        stroke: none;
      }
    </style>
  </defs>
  <g id="Rectangle" class="cls-1">
    <rect class="cls-3" width="32" height="32" rx="4"/>
    <rect class="cls-4" x="0.5" y="0.5" width="31" height="31" rx="3.5"/>
  </g>
  <path id="Shape" class="cls-2" d="M7.813,14H4.748c0-.073.04-8.719,0-9.511H7.813V5.981A2.757,2.757,0,0,1,10.537,4.4,3.163,3.163,0,0,1,13,5.45a4.877,4.877,0,0,1,1,3.261V14H10.906V9.078c0-1.4-.55-2.167-1.549-2.167A1.6,1.6,0,0,0,7.88,8.077a2,2,0,0,0-.067.678V14ZM3.082,14H.353V4.489H3.082V14ZM1.648,3.3h-.02A1.584,1.584,0,0,1,0,1.652,1.588,1.588,0,0,1,1.667,0,1.582,1.582,0,0,1,3.312,1.65,1.585,1.585,0,0,1,1.648,3.3Z" transform="translate(9 9)"/>
</svg>
