<?xml version="1.0" encoding="utf-8"?>
<!-- Generator: Adobe Illustrator 23.0.1, SVG Export Plug-In . SVG Version: 6.00 Build 0)  -->
<svg version="1.1" id="Layer_1" xmlns="http://www.w3.org/2000/svg" xmlns:xlink="http://www.w3.org/1999/xlink" x="0px" y="0px"
	 viewBox="0 0 22 22" style="enable-background:new 0 0 22 22;">
<style type="text/css">
	.st0{fill:#FFFFFF;}
</style>
<g id="Group_5" transform="translate(0)">
	<g id="Oval_1_" transform="translate(3.938)">
		<ellipse id="Ellipse_1" class="st0" cx="6.8" cy="5.1" rx="4.5" ry="5.1"/>
		<ellipse id="Ellipse_2" class="st0" cx="6.8" cy="5.1" rx="3.4" ry="3.9"/>
	</g>
	<g id="Rectangle_3_1_" transform="translate(0 11.824)">
		<path id="Path_2" class="st0" d="M7.3,0h7.3c2.8,0,5.1,2.3,5.1,5.1c0,0,0,0,0,0v5.1H2.3V5.1C2.3,2.3,4.5,0,7.3,0
			C7.3,0,7.3,0,7.3,0z"/>
		<path id="Path_3" class="st0" d="M7.3,1.1h7.3c2.2,0,3.9,1.8,3.9,3.9v2.8c0,0.6-0.5,1.1-1.1,1.1H4.5C3.9,9,3.4,8.5,3.4,7.9V5.1
			C3.4,2.9,5.1,1.1,7.3,1.1C7.3,1.1,7.3,1.1,7.3,1.1z"/>
	</g>
</g>
</svg>
