<svg id="twitter" xmlns="http://www.w3.org/2000/svg" viewBox="0 0 32 32">
  <defs>
    <style>
      .cls-1, .cls-4 {
        fill: none;
      }

      .cls-1 {
        stroke: #303030;
        stroke-miterlimit: 10;
      }

      .cls-2 {
        fill: #a0a0a0;
      }

      .cls-3 {
        stroke: none;
      }
    </style>
  </defs>
  <g id="Rectangle" class="cls-1">
    <rect class="cls-3" width="32" height="32" rx="4"/>
    <rect class="cls-4" x="0.5" y="0.5" width="31" height="31" rx="3.5"/>
  </g>
  <path id="Shape" class="cls-2" d="M12.351,1.9A3.007,3.007,0,0,0,13.613.222a5.57,5.57,0,0,1-1.824.735A2.8,2.8,0,0,0,9.692,0,2.953,2.953,0,0,0,6.821,3.029a3.169,3.169,0,0,0,.073.69A8.022,8.022,0,0,1,.975.554,3.149,3.149,0,0,0,.586,2.077,3.078,3.078,0,0,0,1.864,4.6a2.769,2.769,0,0,1-1.3-.379v.037a2.993,2.993,0,0,0,2.3,2.97,2.674,2.674,0,0,1-.758.107,2.7,2.7,0,0,1-.54-.054,2.9,2.9,0,0,0,2.683,2.1,5.576,5.576,0,0,1-3.567,1.3A5.425,5.425,0,0,1,0,10.639,7.832,7.832,0,0,0,4.4,12c5.284,0,8.171-4.616,8.171-8.619,0-.132,0-.263-.007-.392A6,6,0,0,0,14,1.42,5.5,5.5,0,0,1,12.351,1.9Z" transform="translate(9 10)"/>
</svg>
