<svg xmlns="http://www.w3.org/2000/svg" viewBox="0 0 64.487 63.992">
  <defs>
    <style>
      .cls-1 {
        fill: #fff;
      }
    </style>
  </defs>
  <g id="uptime" transform="translate(0 -0.008)">
    <path id="Shape" class="cls-1" d="M6.683,8.689h0a2,2,0,0,0,2-2V2.029a2,2,0,0,0-2.34-2l-4.59.8a2.017,2.017,0,0,0,.53,4,16,16,0,0,0,14.28,23.1,16.47,16.47,0,0,0,1.85-.11,2.013,2.013,0,0,0-.46-4A12,12,0,0,1,5.233,8.059,2,2,0,0,0,6.683,8.689Z" transform="translate(31.437 4.071)"/>
    <path id="Shape-2" data-name="Shape" class="cls-1" d="M18.908,23.112A16,16,0,0,0,1.588.282a2,2,0,0,0,.74,3.93,12,12,0,0,1,13.61,15.66,2,2,0,0,0-1.46-.64h0a2,2,0,0,0-2,2v4.61a2,2,0,0,0,0,.47v.09a2,2,0,0,0,.1.3l.07.14a2,2,0,0,0,.13.21l.13.16.08.09h.06l.07.08.14.1h.07a2,2,0,0,0,.31.16h0a2,2,0,0,0,.75.15h.34l4.59-.8a2.017,2.017,0,1,0-.52-4Z" transform="translate(43.412 0.008)"/>
    <path id="Shape-3" data-name="Shape" class="cls-1" d="M40,54H16a2,2,0,1,1,0-4h5V41H2a2,2,0,0,1-2-2V2A2,2,0,0,1,2,0H24a2,2,0,0,1,0,4H4V28H54a2,2,0,0,1,2,2v9a2,2,0,0,1-2,2H35v9h5a2,2,0,1,1,0,4ZM25,41v9h6V41ZM4,32v5H52V32Z" transform="translate(0 10)"/>
    <path id="Shape-4" data-name="Shape" class="cls-1" d="M2.012,13.006a2,2,0,0,0,1.41-.59l9-9A2,2,0,0,0,9.592.586l-9,9a2,2,0,0,0,1.42,3.42Z" transform="translate(10.988 19.994)"/>
    <path id="Shape-5" data-name="Shape" class="cls-1" d="M8.416.587a2,2,0,0,0-2.83,0l-5,5a2,2,0,1,0,2.83,2.83l5-5a2,2,0,0,0,0-2.83Z" transform="translate(7.994 16.003)"/>
  </g>
</svg>
