<?xml version="1.0" encoding="utf-8"?>
<!-- Generator: Adobe Illustrator 23.0.1, SVG Export Plug-In . SVG Version: 6.00 Build 0)  -->
<svg version="1.1" id="Layer_1" xmlns="http://www.w3.org/2000/svg" xmlns:xlink="http://www.w3.org/1999/xlink" x="0px" y="0px"
	 viewBox="0 0 79.4 72.8" style="enable-background:new 0 0 79.4 72.8;" xml:space="preserve">
<title>workloads</title>
<g>
	<g id="Layer_5">
		<path class="fill" d="M62.8,41.7c-2.9,12.7-15.6,20.7-28.3,17.8c-8.3-1.9-14.9-8.1-17.4-16.2l6.9-6.9l-15.8,0l0,15.8l4.8-4.8
			c6,14.8,22.9,21.9,37.7,15.8c9.1-3.7,15.7-11.8,17.5-21.5L62.8,41.7z"/>
		<path class="fill" d="M66.5,25.5c-6-14.8-22.9-21.9-37.7-15.8c-9.1,3.7-15.7,11.8-17.5,21.5l5.4,0c2.9-12.7,15.6-20.7,28.3-17.8
			c8.3,1.9,14.9,8.1,17.4,16.2l-6.9,6.9l15.8,0l0-15.8L66.5,25.5z"/>
		<path class="fill" d="M52.7,38.6l0-4.4l-4.6,0c-0.2-0.8-0.6-1.5-1-2.2l3.3-3.3l-3.1-3.1l-3.2,3.3c-0.7-0.4-1.4-0.7-2.2-0.9v-4.7l-4.4,0V28
			c-0.8,0.2-1.5,0.5-2.2,0.9L32,25.6l-3.1,3.1l3.3,3.3c-0.4,0.7-0.7,1.4-0.9,2.2h-4.7l0,4.4l4.7,0c0.2,0.8,0.5,1.5,0.9,2.2l-3.3,3.3
			l3.1,3.1l3.3-3.3c0.7,0.4,1.4,0.7,2.2,0.9v4.7l4.3,0v-4.7c0.8-0.2,1.6-0.5,2.3-0.9l3.3,3.3l3.1-3.1l-3.4-3.3
			c0.4-0.7,0.8-1.4,1-2.2H52.7z M39.7,40.7c-2.4,0-4.4-1.9-4.4-4.3s1.9-4.4,4.3-4.4s4.4,1.9,4.4,4.3c0,0,0,0,0,0
			C44.1,38.8,42.1,40.7,39.7,40.7C39.7,40.7,39.7,40.7,39.7,40.7L39.7,40.7z"/>
	</g>
</g>
</svg>
